<?xml version="1.0" encoding="utf-8"?>
<!-- Generator: Adobe Illustrator 16.0.0, SVG Export Plug-In . SVG Version: 6.00 Build 0)  -->
<!DOCTYPE svg PUBLIC "-//W3C//DTD SVG 1.1//EN" "http://www.w3.org/Graphics/SVG/1.1/DTD/svg11.dtd">
<svg version="1.1" id="Layer_1" xmlns="http://www.w3.org/2000/svg" xmlns:xlink="http://www.w3.org/1999/xlink" x="0px" y="0px"
	 width="100px" height="100px" viewBox="0 0 100 100" enable-background="new 0 0 100 100" xml:space="preserve">
<path fill="#656565" d="M52.974,18.768L17.441,54.302c-3.298,3.352-4.974,7.678-4.974,12.059s1.676,8.76,4.974,12.061
	c3.3,3.354,7.68,4.975,12.061,4.975c4.327,0,8.708-1.621,12.061-4.975l42.022-42.022c2.648-2.65,3.948-6.057,3.948-9.518
	c0-3.408-1.354-6.815-3.948-9.411v-0.054c-2.596-2.596-6.003-3.894-9.465-3.894c-3.407,0-6.868,1.298-9.463,3.894L32.151,49.919
	c-1.947,2.002-2.974,4.598-2.974,7.191c0,2.598,1.027,5.193,2.974,7.195c2.001,1.945,4.598,2.975,7.193,2.975v-0.057
	c2.595,0,5.245-0.973,7.194-2.918l26.608-26.609l-3.731-3.732L42.807,60.573c-0.918,0.973-2.219,1.459-3.462,1.459v-0.053
	c-1.243,0-2.542-0.434-3.46-1.406c-0.974-0.918-1.408-2.219-1.408-3.463c0-1.242,0.434-2.541,1.408-3.459l32.501-32.503
	c1.569-1.569,3.678-2.38,5.733-2.38c2.111,0,4.22,0.812,5.787,2.38c1.569,1.568,2.38,3.677,2.38,5.733
	c0,2.109-0.811,4.218-2.38,5.786L37.83,74.745c-2.271,2.268-5.299,3.404-8.329,3.404c-3.028,0-6.057-1.137-8.382-3.404h0.054
	c-2.325-2.328-3.46-5.355-3.46-8.385c0-3.027,1.135-6.057,3.46-8.33l35.53-35.585L52.974,18.768z"/>
</svg>
