<?xml version="1.0" encoding="utf-8"?>
<!-- Generator: Adobe Illustrator 16.0.0, SVG Export Plug-In . SVG Version: 6.00 Build 0)  -->
<!DOCTYPE svg PUBLIC "-//W3C//DTD SVG 1.1//EN" "http://www.w3.org/Graphics/SVG/1.1/DTD/svg11.dtd">
<svg version="1.1" id="Layer_1" xmlns="http://www.w3.org/2000/svg" xmlns:xlink="http://www.w3.org/1999/xlink" x="0px" y="0px"
	 width="100px" height="100px" viewBox="0 0 100 100" enable-background="new 0 0 100 100" xml:space="preserve">
<path fill="#656565" d="M50.025,21.631c-20.081,0-36.298,10.866-36.298,24.25c0,13.335,16.217,23.581,36.298,24.199
	c4.275,3.656,3.708,6.487,17.301,8.289c-3.144-2.368-7.209-4.324-6.538-9.113c14.775-2.883,25.484-12.407,25.484-23.375
	C86.272,32.341,70.054,21.631,50.025,21.631z M31.284,52.008H54.35v4.737H31.284V52.008z M31.284,42.999h36.762v4.736H31.284V42.999
	z M31.284,33.988h30.841v4.788H31.284V33.988z"/>
</svg>
