<?xml version="1.0" encoding="utf-8"?>
<!-- Generator: Adobe Illustrator 16.0.0, SVG Export Plug-In . SVG Version: 6.00 Build 0)  -->
<!DOCTYPE svg PUBLIC "-//W3C//DTD SVG 1.1//EN" "http://www.w3.org/Graphics/SVG/1.1/DTD/svg11.dtd">
<svg version="1.1" id="Layer_1" xmlns="http://www.w3.org/2000/svg" xmlns:xlink="http://www.w3.org/1999/xlink" x="0px" y="0px"
	 width="100px" height="100px" viewBox="0 0 100 100" enable-background="new 0 0 100 100" xml:space="preserve">
<path fill="#656565" d="M86.118,69.092c-0.594-1.187-2.038-1.695-3.225-1.103c-7.724,3.818-12.263,4.666-14.976,3.818
	c-2.122-0.679-3.14-2.801-3.861-5.347c3.35-4.625,5.343-10.311,5.343-16.461c0-15.4-12.47-27.873-27.873-27.873
	c-15.4,0-27.873,12.473-27.873,27.873s12.473,27.874,27.873,27.874c7.299,0,13.918-2.757,18.882-7.337
	c1.146,2.712,2.926,4.879,6.109,5.852c3.773,1.19,9.503,0.34,18.495-4.112C86.202,71.723,86.667,70.278,86.118,69.092z
	 M41.526,26.199c4.455,0,8.062,3.607,8.062,8.062c0,4.411-3.607,8.019-8.062,8.019s-8.06-3.607-8.06-8.019
	C33.467,29.806,37.071,26.199,41.526,26.199z M26.211,57.595c-4.414,0-8.019-3.607-8.019-8.062c0-4.454,3.604-8.061,8.06-8.061
	c4.414,0,8.019,3.607,8.019,8.061C34.271,53.987,30.667,57.595,26.211,57.595z M41.526,72.909c-4.455,0-8.06-3.604-8.06-8.06
	c0-4.454,3.604-8.062,8.06-8.062s8.062,3.607,8.062,8.062C49.588,69.305,45.981,72.909,41.526,72.909z M56.845,57.595
	c-4.455,0-8.063-3.607-8.063-8.062c0-4.454,3.608-8.061,8.063-8.061c4.452,0,8.06,3.607,8.06,8.061
	C64.904,53.987,61.297,57.595,56.845,57.595z"/>
</svg>
