<?xml version="1.0" encoding="utf-8"?>
<!-- Generator: Adobe Illustrator 16.0.0, SVG Export Plug-In . SVG Version: 6.00 Build 0)  -->
<!DOCTYPE svg PUBLIC "-//W3C//DTD SVG 1.1//EN" "http://www.w3.org/Graphics/SVG/1.1/DTD/svg11.dtd">
<svg version="1.1" id="Layer_1" xmlns="http://www.w3.org/2000/svg" xmlns:xlink="http://www.w3.org/1999/xlink" x="0px" y="0px"
	 width="100px" height="100px" viewBox="0 0 100 100" enable-background="new 0 0 100 100" xml:space="preserve">
<g>
	<path fill="#656565" d="M72.889,12.861h-45.83c-2.387,0-4.343,2.009-4.343,4.398v65.484c0,2.387,1.957,4.396,4.343,4.396h45.83
		c2.442,0,4.396-2.009,4.396-4.396V17.259C77.284,14.87,75.331,12.861,72.889,12.861z M38.301,78.725
		c0,0.651-0.542,1.138-1.141,1.138h-7.22c-0.655,0-1.141-0.486-1.141-1.138v-7.224c0-0.595,0.486-1.138,1.141-1.138h7.22
		c0.599,0,1.141,0.543,1.141,1.138V78.725z M38.301,62.87c0,0.595-0.542,1.141-1.141,1.141h-7.22c-0.655,0-1.141-0.546-1.141-1.141
		v-7.277c0-0.598,0.486-1.141,1.141-1.141h7.22c0.599,0,1.141,0.543,1.141,1.141V62.87z M38.301,46.959
		c0,0.597-0.542,1.139-1.141,1.139h-7.22c-0.655,0-1.141-0.542-1.141-1.139v-7.222c0-0.651,0.486-1.139,1.141-1.139h7.22
		c0.599,0,1.141,0.488,1.141,1.139V46.959z M54.751,78.725c0,0.651-0.542,1.138-1.137,1.138H46.39c-0.651,0-1.141-0.486-1.141-1.138
		v-7.224c0-0.595,0.49-1.138,1.141-1.138h7.225c0.595,0,1.137,0.543,1.137,1.138V78.725z M54.751,62.87
		c0,0.595-0.542,1.141-1.137,1.141H46.39c-0.651,0-1.141-0.546-1.141-1.141v-7.277c0-0.598,0.49-1.141,1.141-1.141h7.225
		c0.595,0,1.137,0.543,1.137,1.141V62.87z M54.751,46.959c0,0.597-0.542,1.139-1.137,1.139H46.39c-0.651,0-1.141-0.542-1.141-1.139
		v-7.222c0-0.651,0.49-1.139,1.141-1.139h7.225c0.595,0,1.137,0.488,1.137,1.139V46.959z M71.205,78.725
		c0,0.651-0.543,1.138-1.142,1.138h-7.22c-0.651,0-1.142-0.486-1.142-1.138v-7.224c0-0.595,0.49-1.138,1.142-1.138h7.22
		c0.599,0,1.142,0.543,1.142,1.138V78.725z M71.205,62.87c0,0.595-0.543,1.141-1.142,1.141h-7.22c-0.651,0-1.142-0.546-1.142-1.141
		v-7.277c0-0.598,0.49-1.141,1.142-1.141h7.22c0.599,0,1.142,0.543,1.142,1.141V62.87z M71.205,46.959
		c0,0.597-0.543,1.139-1.142,1.139h-7.22c-0.651,0-1.142-0.542-1.142-1.139v-7.222c0-0.651,0.49-1.139,1.142-1.139h7.22
		c0.599,0,1.142,0.488,1.142,1.139V46.959z M71.964,30.183c0,1.575-1.302,2.877-2.877,2.877H30.86c-1.575,0-2.821-1.302-2.821-2.877
		v-8.743c0-1.575,1.246-2.823,2.821-2.823h38.227c1.575,0,2.877,1.248,2.877,2.823V30.183z"/>
</g>
</svg>
