<?xml version="1.0" encoding="utf-8"?>
<!-- Generator: Adobe Illustrator 16.0.0, SVG Export Plug-In . SVG Version: 6.00 Build 0)  -->
<!DOCTYPE svg PUBLIC "-//W3C//DTD SVG 1.1//EN" "http://www.w3.org/Graphics/SVG/1.1/DTD/svg11.dtd">
<svg version="1.1" id="Layer_1" xmlns="http://www.w3.org/2000/svg" xmlns:xlink="http://www.w3.org/1999/xlink" x="0px" y="0px"
	 width="100px" height="100px" viewBox="0 0 100 100" enable-background="new 0 0 100 100" xml:space="preserve">
<path fill="#656565" d="M16.28,19.945l3.677-3.625c2.103-2.154,5.621-2.154,7.724,0l22.326,22.275L72.333,16.32
	c2.103-2.154,5.621-2.154,7.721,0l3.626,3.625c2.154,2.101,2.154,5.621,0,7.723L61.405,49.993L83.68,72.32
	c2.154,2.102,2.154,5.619,0,7.723l-3.626,3.678c-2.1,2.099-5.618,2.099-7.721,0L50.007,61.393L27.681,83.721
	c-2.103,2.099-5.621,2.099-7.724,0l-3.677-3.678c-2.1-2.104-2.1-5.621,0-7.723l22.326-22.327L16.28,27.667
	C14.18,25.566,14.18,22.046,16.28,19.945z"/>
</svg>
