<?xml version="1.0" encoding="utf-8"?>
<!-- Generator: Adobe Illustrator 16.0.0, SVG Export Plug-In . SVG Version: 6.00 Build 0)  -->
<!DOCTYPE svg PUBLIC "-//W3C//DTD SVG 1.1//EN" "http://www.w3.org/Graphics/SVG/1.1/DTD/svg11.dtd">
<svg version="1.1" id="Layer_1" xmlns="http://www.w3.org/2000/svg" xmlns:xlink="http://www.w3.org/1999/xlink" x="0px" y="0px"
	 width="100px" height="100px" viewBox="0 0 100 100" enable-background="new 0 0 100 100" xml:space="preserve">
<polygon fill="#656565" points="70.604,50.968 36.764,50.968 32.627,26.19 82.179,26.19 "/>
<path fill="#656565" d="M14.243,21.477c-1.206-0.732-1.574-2.252-0.892-3.458c0.733-1.206,2.303-1.624,3.509-0.892
	c5.814,3.458,9.795,9.586,12.52,17.602c2.411,7.071,3.822,15.61,4.714,24.988H74.74c1.364,0,2.516,1.15,2.516,2.565
	s-1.151,2.514-2.516,2.514H32c-1.415,0.104-2.62-0.89-2.725-2.304c-0.837-9.953-2.252-18.912-4.713-26.139
	C22.205,29.491,18.956,24.252,14.243,21.477z"/>
<circle fill="#656565" cx="33.988" cy="76.059" r="7.176"/>
<circle fill="#656565" cx="69.503" cy="76.059" r="7.176"/>
</svg>
