<?xml version="1.0" encoding="utf-8"?>
<!-- Generator: Adobe Illustrator 16.0.0, SVG Export Plug-In . SVG Version: 6.00 Build 0)  -->
<!DOCTYPE svg PUBLIC "-//W3C//DTD SVG 1.1//EN" "http://www.w3.org/Graphics/SVG/1.1/DTD/svg11.dtd">
<svg version="1.1" id="Layer_1" xmlns="http://www.w3.org/2000/svg" xmlns:xlink="http://www.w3.org/1999/xlink" x="0px" y="0px"
	 width="100px" height="100px" viewBox="0 0 100 100" enable-background="new 0 0 100 100" xml:space="preserve">
<path fill="#656565" d="M49.972,85.797c-9.89,0-18.333-3.526-25.274-10.468c-6.997-6.996-10.467-15.439-10.467-25.331
	c0-9.887,3.47-18.331,10.467-25.33c6.941-6.937,15.384-10.465,25.274-10.465c9.889,0,18.333,3.528,25.33,10.465
	c6.997,6.999,10.468,15.442,10.468,25.33c0,9.891-3.471,18.334-10.468,25.331C68.305,82.271,59.861,85.797,49.972,85.797z
	 M49.972,38.087c1.331,0,2.486-0.464,3.411-1.389s1.387-2.024,1.387-3.355c0-1.329-0.462-2.486-1.387-3.411s-2.08-1.387-3.411-1.387
	c-1.331,0-2.431,0.462-3.355,1.387s-1.387,2.082-1.387,3.411c0,1.273,0.462,2.373,1.387,3.355
	C47.601,37.623,48.697,38.087,49.972,38.087z M50.55,49.999l-1.155,0.06c-4.626,0.231-8.443,1.908-11.512,5.089
	c-3.064,3.18-4.566,7.053-4.566,11.563c0,4.686,1.618,8.675,4.917,11.914c3.295,3.18,7.399,4.801,12.256,4.801
	c8.965,0,16.715-3.295,23.189-9.89c6.479-6.594,9.719-14.456,9.719-23.538c0-9.31-3.124-17.058-9.312-23.305
	c-6.188-6.186-14.226-9.541-24.115-10.061c5.495,0.693,9.659,2.428,12.492,5.264c2.833,2.891,4.279,6.65,4.279,11.447
	c0,4.513-1.563,8.388-4.626,11.509C59.049,48.034,55.176,49.768,50.55,49.999z M49.972,71.456c-1.331,0-2.431-0.466-3.355-1.391
	c-0.924-0.924-1.387-2.023-1.387-3.354c0-1.271,0.462-2.427,1.387-3.351c0.924-0.929,2.024-1.391,3.355-1.391
	c1.331,0,2.486,0.462,3.411,1.391c0.925,0.924,1.387,2.079,1.387,3.351c0,1.331-0.462,2.49-1.387,3.415
	C52.458,70.99,51.303,71.456,49.972,71.456z"/>
</svg>
