<?xml version="1.0" encoding="utf-8"?>
<!-- Generator: Adobe Illustrator 16.0.0, SVG Export Plug-In . SVG Version: 6.00 Build 0)  -->
<!DOCTYPE svg PUBLIC "-//W3C//DTD SVG 1.1//EN" "http://www.w3.org/Graphics/SVG/1.1/DTD/svg11.dtd">
<svg version="1.1" id="Layer_1" xmlns="http://www.w3.org/2000/svg" xmlns:xlink="http://www.w3.org/1999/xlink" x="0px" y="0px"
	 width="100px" height="100px" viewBox="0 0 100 100" enable-background="new 0 0 100 100" xml:space="preserve">
<path fill="#656565" d="M49.493,79.785c7.871,0,14.128-0.066,18.837-0.134h11.773c3.026,0,4.978-0.943,5.849-2.758
	c0.876-1.884,1.349-3.497,1.349-4.911V37.943c0-1.412-0.473-2.959-1.349-4.844c-0.871-1.814-2.822-2.688-5.849-2.623
	c-2.962,0-5.919,0-8.881-0.065c-2.962,0-5.919-0.07-8.88-0.07c0.269-1.68,0.203-3.766-0.2-6.322
	c-0.338-2.556-1.548-3.833-3.633-3.833H41.489c-1.545,0-2.554,0.672-3.094,2.083c-0.47,1.414-0.739,2.895-0.739,4.373v3.698
	c-2.961,0-5.918,0.07-8.88,0.07c-2.959,0.065-5.918,0.065-8.878,0.065c-2.895-0.065-4.776,0.809-5.787,2.623
	c-0.941,1.884-1.412,3.432-1.412,4.844v34.241c0,1.347,0.471,2.959,1.347,4.709c0.941,1.814,2.892,2.758,5.852,2.758h8.878
	c2.962,0.067,5.919,0.067,8.88,0.067C37.723,79.785,41.693,79.853,49.493,79.785z M41.354,26.106
	c0.269-1.683,1.078-2.489,2.489-2.489c2.086,0,3.97,0,5.65-0.069c1.683,0,3.969-0.065,6.865-0.065c1.141,0,1.882,0.538,2.285,1.548
	c0.403,0.941,0.607,1.949,0.607,2.823c0,0.943-0.069,1.683-0.135,2.354H41.22C41.085,29.065,41.085,27.719,41.354,26.106z"/>
</svg>
