<?xml version="1.0" encoding="utf-8"?>
<!-- Generator: Adobe Illustrator 16.0.0, SVG Export Plug-In . SVG Version: 6.00 Build 0)  -->
<!DOCTYPE svg PUBLIC "-//W3C//DTD SVG 1.1//EN" "http://www.w3.org/Graphics/SVG/1.1/DTD/svg11.dtd">
<svg version="1.1" id="Layer_1" xmlns="http://www.w3.org/2000/svg" xmlns:xlink="http://www.w3.org/1999/xlink" x="0px" y="0px"
	 width="100px" height="100px" viewBox="0 0 100 100" enable-background="new 0 0 100 100" xml:space="preserve">
<g>
	<path fill="#656565" d="M17.167,17.104c2.269-0.981,4.723-1.167,7.303-0.613l12.335,68.981c-2.271,1.412-4.726,1.594-7.366,0.613
		C25.328,63.133,21.277,40.119,17.167,17.104z"/>
	<polygon fill="#656565" points="32.324,15.937 34.227,15.017 36.068,14.343 37.908,13.853 39.688,13.543 41.469,13.36 
		43.186,13.298 44.907,13.421 46.624,13.666 48.342,13.975 49.998,14.402 51.655,14.895 53.313,15.446 54.909,16 56.565,16.614 
		58.161,17.288 59.758,17.901 61.352,18.453 62.948,19.068 64.545,19.559 66.139,19.988 67.737,20.295 69.331,20.479 70.928,20.542 
		72.583,20.419 74.18,20.111 75.837,19.559 77.311,18.884 82.834,54.172 82.834,54.172 81.544,54.662 80.256,54.971 79.027,55.094 
		77.802,55.094 76.573,55.03 75.285,54.785 73.996,54.479 72.706,54.049 71.357,53.559 70.008,53.005 68.596,52.392 67.184,51.718 
		65.712,51.044 64.177,50.367 62.642,49.692 61.048,49.08 59.39,48.464 57.732,47.974 55.952,47.544 54.172,47.176 52.269,46.993 
		50.368,46.993 48.404,47.115 46.378,47.422 44.292,47.974 42.143,48.709 39.934,49.631 37.724,50.857 35.453,52.33 33.612,53.682 
		27.167,19.437 28.334,18.517 30.36,17.104 	"/>
</g>
</svg>
