<?xml version="1.0" encoding="utf-8"?>
<!-- Generator: Adobe Illustrator 16.0.0, SVG Export Plug-In . SVG Version: 6.00 Build 0)  -->
<!DOCTYPE svg PUBLIC "-//W3C//DTD SVG 1.1//EN" "http://www.w3.org/Graphics/SVG/1.1/DTD/svg11.dtd">
<svg version="1.1" id="Layer_1" xmlns="http://www.w3.org/2000/svg" xmlns:xlink="http://www.w3.org/1999/xlink" x="0px" y="0px"
	 width="100px" height="100px" viewBox="0 0 100 100" enable-background="new 0 0 100 100" xml:space="preserve">
<g>
	<path fill="#656565" d="M29.571,25.455c3.329,0,5.973-2.691,5.973-5.973c0-3.278-2.644-5.971-5.973-5.971
		c-3.278,0-5.969,2.693-5.969,5.971C23.602,22.763,26.293,25.455,29.571,25.455z"/>
	<path fill="#656565" d="M36.181,26.972c4.256,0,7.682,3.426,7.682,7.684v18.5c0,1.469-1.126,2.643-2.546,2.643
		c-1.467,0-2.641-1.174-2.641-2.643V36.467h-1.322v46.496c0,1.959-1.615,3.524-3.524,3.524c-1.959,0-3.524-1.565-3.524-3.524V55.947
		h-1.42v27.016c0,1.959-1.615,3.524-3.524,3.524c-1.956,0-3.524-1.565-3.524-3.524V36.467h-1.369v16.689
		c0,1.469-1.126,2.643-2.594,2.643c-1.47,0-2.597-1.174-2.597-2.643v-18.5c0-4.257,3.477-7.684,7.686-7.684H36.181z"/>
	<path fill="#656565" d="M67.699,25.259c-3.375,0-6.117-2.742-6.117-6.07s2.742-6.02,6.117-6.02c3.329,0,6.07,2.691,6.07,6.02
		S71.028,25.259,67.699,25.259z"/>
	<path fill="#656565" d="M63.049,26.581c0,0-5.577-0.195-7.537,6.46L50.716,49.73c-0.442,1.567,0.441,2.741,1.812,3.133
		c1.322,0.391,2.742-0.295,3.082-1.518l4.701-16.299h1.225l-8.077,28.191h7.635v20.704c0,1.566,1.322,2.889,2.985,2.889
		c1.47,0,2.987-1.471,2.987-3.035V63.238h1.221v20.558c0,1.564,1.518,3.035,2.988,3.035c1.662,0,2.984-1.322,2.984-2.889V63.238
		h7.635l-8.076-28.191h1.274l4.65,16.299c0.341,1.223,1.761,1.908,3.082,1.518c1.369-0.393,2.25-1.566,1.761-3.133L79.84,33.041
		c-1.959-6.655-7.54-6.46-7.54-6.46H63.049z"/>
</g>
</svg>
