<?xml version="1.0" encoding="utf-8"?>
<!-- Generator: Adobe Illustrator 16.0.0, SVG Export Plug-In . SVG Version: 6.00 Build 0)  -->
<!DOCTYPE svg PUBLIC "-//W3C//DTD SVG 1.1//EN" "http://www.w3.org/Graphics/SVG/1.1/DTD/svg11.dtd">
<svg version="1.1" id="Layer_1" xmlns="http://www.w3.org/2000/svg" xmlns:xlink="http://www.w3.org/1999/xlink" x="0px" y="0px"
	 width="100px" height="100px" viewBox="0 0 100 100" enable-background="new 0 0 100 100" xml:space="preserve">
<g>
	<ellipse fill="#656565" cx="50.206" cy="35.117" rx="18.519" ry="20.634"/>
	<polygon fill="#656565" points="32.047,54.565 32.719,54.565 33.131,54.669 33.543,54.823 33.956,55.029 34.318,55.287 
		34.784,55.647 35.196,56.111 35.658,56.731 36.124,57.402 36.589,58.177 37.002,59.104 37.464,60.032 37.876,61.064 38.292,62.2 
		38.651,63.334 39.014,64.47 39.373,65.708 39.735,66.894 40.098,68.079 40.457,69.317 40.766,70.505 41.128,71.69 41.541,72.826 
		41.903,73.962 42.365,75.044 42.881,76.18 43.449,77.21 44.224,78.294 45.202,79.378 46.492,80.357 48.145,81.027 50,81.287 
		51.908,81.027 53.562,80.306 54.901,79.325 55.829,78.242 56.551,77.16 57.169,76.076 57.688,74.94 58.101,73.858 58.513,72.671 
		58.872,71.537 59.234,70.351 59.597,69.163 59.956,67.926 60.318,66.688 60.677,65.502 61.04,64.315 61.452,63.128 61.864,61.994 
		62.276,60.91 62.742,59.879 63.208,58.95 63.724,58.073 64.186,57.299 64.701,56.627 65.22,56.062 65.682,55.597 66.147,55.287 
		66.663,54.978 67.128,54.771 67.693,54.615 68.312,54.565 69.243,54.513 69.861,54.565 70.377,54.615 70.893,54.669 71.407,54.771 
		71.873,54.875 72.389,54.978 72.854,55.133 73.267,55.339 73.729,55.493 74.141,55.699 74.554,55.959 74.916,56.165 75.278,56.421 
		75.638,56.681 76,56.989 76.31,57.247 76.618,57.557 76.878,57.867 77.134,58.177 77.394,58.486 77.6,58.795 77.806,59.104 
		78.012,59.362 78.164,59.671 78.268,59.929 78.371,60.238 78.478,60.444 78.527,60.704 78.58,60.858 78.63,61.064 78.63,61.168 
		78.63,61.374 78.63,81.749 78.63,82.215 78.58,82.575 78.478,82.937 78.371,83.245 78.218,83.555 78.012,83.865 77.806,84.123 
		77.546,84.381 77.236,84.639 76.928,84.898 76.618,85.051 76.256,85.207 75.896,85.36 75.534,85.463 75.122,85.517 74.606,85.517 
		25.394,85.517 24.878,85.517 24.516,85.463 24.103,85.36 23.744,85.207 23.382,85.051 23.072,84.898 22.763,84.639 22.504,84.381 
		22.248,84.123 22.042,83.865 21.835,83.555 21.679,83.245 21.576,82.937 21.473,82.575 21.423,82.215 21.37,81.749 21.37,61.374 
		21.37,61.219 21.423,61.168 21.423,61.013 21.473,60.858 21.526,60.652 21.629,60.444 21.732,60.188 21.885,59.929 22.091,59.62 
		22.297,59.311 22.504,59.001 22.763,58.692 23.072,58.383 23.382,58.073 23.691,57.763 24.053,57.453 24.413,57.145 24.828,56.835 
		25.241,56.577 25.703,56.317 26.168,56.062 26.634,55.803 27.096,55.597 27.611,55.391 28.126,55.184 28.695,55.029 29.211,54.875 
		29.779,54.771 30.345,54.669 30.967,54.615 31.532,54.565 	"/>
</g>
</svg>
