<?xml version="1.0" encoding="utf-8"?>
<!-- Generator: Adobe Illustrator 16.0.0, SVG Export Plug-In . SVG Version: 6.00 Build 0)  -->
<!DOCTYPE svg PUBLIC "-//W3C//DTD SVG 1.1//EN" "http://www.w3.org/Graphics/SVG/1.1/DTD/svg11.dtd">
<svg version="1.1" id="Layer_1" xmlns="http://www.w3.org/2000/svg" xmlns:xlink="http://www.w3.org/1999/xlink" x="0px" y="0px"
	 width="100px" height="100px" viewBox="0 0 100 100" enable-background="new 0 0 100 100" xml:space="preserve">
<g>
	<path fill="#656565" d="M38.251,13.898c5.378,0,10.025,3.34,12.375,8.249c-6.317,3.34-10.651,10.495-10.651,18.793
		c0,1.36,0.104,2.716,0.367,3.968c-0.68,0.158-1.356,0.21-2.09,0.21c-7.727,0-13.989-6.997-13.989-15.61
		C24.262,20.893,30.525,13.898,38.251,13.898z"/>
	<path fill="#656565" d="M24.575,42.926l0.626,0.05l0.471,0.104l0.468,0.159l0.471,0.261l0.417,0.261l0.417,0.365l0.417,0.469
		l0.417,0.523l0.367,0.574l0.417,0.68l0.367,0.73l0.313,0.782l0.363,0.782l0.313,0.889l0.263,0.889l0.313,0.887l0.263,0.94
		l0.259,0.887l0.263,0.94l0.259,0.887l0.263,0.887l0.259,0.889l0.263,0.782c-2.09,1.932-3.288,4.229-3.288,6.108v5.222H19.51
		l-0.522-0.053l-0.417-0.052l-0.417-0.104l-0.367-0.156l-0.367-0.156l-0.363-0.209l-0.313-0.263l-0.313-0.259l-0.262-0.263
		l-0.209-0.313l-0.208-0.313l-0.208-0.367l-0.104-0.363l-0.104-0.367l-0.054-0.417l-0.05-0.417V49.139l0.05-0.159v-0.154
		l0.054-0.209l0.104-0.262l0.104-0.209l0.104-0.261l0.159-0.261l0.154-0.261l0.158-0.261l0.209-0.313l0.259-0.263l0.263-0.259
		l0.259-0.315l0.263-0.261l0.313-0.261l0.313-0.261l0.367-0.263l0.363-0.208l0.367-0.259l0.417-0.208l0.367-0.21l0.417-0.208
		l0.467-0.157l0.417-0.156l0.471-0.157l0.471-0.104l0.468-0.104l0.471-0.104l0.521-0.054h0.521L24.575,42.926z"/>
	<ellipse fill="#656565" cx="58.72" cy="40.942" rx="16.079" ry="17.908"/>
	<polygon fill="#656565" points="43.003,56.394 43.734,56.448 44.309,56.553 44.831,56.761 45.353,57.021 45.824,57.335 
		46.292,57.752 46.763,58.275 47.234,58.85 47.701,59.527 48.119,60.312 48.536,61.146 48.957,62.034 49.32,62.974 49.687,63.966 
		50.05,64.957 50.363,66.002 50.68,67.045 50.993,68.143 51.306,69.186 51.619,70.229 51.878,71.222 52.19,72.215 52.504,73.206 
		52.87,74.146 53.237,75.033 53.601,75.92 54.072,76.704 54.647,77.538 55.324,78.271 56.212,78.948 57.31,79.42 58.562,79.574 
		59.763,79.42 60.91,78.896 61.799,78.219 62.479,77.435 63,76.651 63.468,75.815 63.835,74.929 64.198,74.042 64.565,73.102 
		64.878,72.11 65.191,71.117 65.453,70.074 65.767,69.029 66.079,67.934 66.393,66.889 66.76,65.844 67.123,64.801 67.489,63.758 
		67.853,62.765 68.273,61.826 68.691,60.938 69.159,60.153 69.63,59.371 70.151,58.745 70.673,58.171 71.194,57.647 71.717,57.23 
		72.292,56.917 72.918,56.656 73.544,56.498 74.277,56.394 75.217,56.394 75.788,56.394 76.313,56.448 76.835,56.498 77.356,56.603 
		77.824,56.707 78.296,56.865 78.767,57.021 79.234,57.178 79.651,57.387 80.072,57.596 80.49,57.804 80.907,58.066 81.271,58.275 
		81.638,58.588 81.95,58.85 82.264,59.162 82.576,59.423 82.89,59.736 83.152,60.049 83.411,60.361 83.619,60.675 83.832,60.989 
		84.04,61.303 84.195,61.615 84.3,61.93 84.458,62.189 84.562,62.502 84.612,62.765 84.666,63.025 84.717,63.234 84.771,63.442 
		84.771,63.703 84.771,81.401 84.717,81.978 84.666,82.395 84.562,82.812 84.403,83.229 84.195,83.646 83.937,84.014 83.674,84.379 
		83.36,84.691 83.048,85.005 82.63,85.266 82.264,85.527 81.846,85.736 81.375,85.892 80.907,85.995 80.436,86.05 79.86,86.102 
		37.208,86.102 36.633,86.05 36.165,85.995 35.694,85.892 35.226,85.736 34.805,85.527 34.388,85.266 34.025,85.005 33.712,84.691 
		33.399,84.379 33.136,84.014 32.874,83.646 32.665,83.229 32.51,82.812 32.406,82.395 32.352,81.978 32.302,81.401 32.302,63.703 
		32.302,63.495 32.352,63.286 32.406,63.078 32.457,62.869 32.51,62.606 32.665,62.348 32.77,62.034 32.928,61.771 33.136,61.459 
		33.345,61.146 33.607,60.833 33.867,60.521 34.129,60.153 34.442,59.84 34.755,59.527 35.122,59.214 35.485,58.953 35.902,58.639 
		36.32,58.38 36.737,58.117 37.158,57.856 37.625,57.647 38.147,57.387 38.619,57.178 39.14,57.021 39.662,56.865 40.183,56.707 
		40.759,56.603 41.28,56.498 41.856,56.448 42.482,56.394 	"/>
</g>
</svg>
