<?xml version="1.0" encoding="utf-8"?>
<!-- Generator: Adobe Illustrator 16.0.0, SVG Export Plug-In . SVG Version: 6.00 Build 0)  -->
<!DOCTYPE svg PUBLIC "-//W3C//DTD SVG 1.1//EN" "http://www.w3.org/Graphics/SVG/1.1/DTD/svg11.dtd">
<svg version="1.1" id="Layer_1" xmlns="http://www.w3.org/2000/svg" xmlns:xlink="http://www.w3.org/1999/xlink" x="0px" y="0px"
	 width="100px" height="100px" viewBox="0 0 100 100" enable-background="new 0 0 100 100" xml:space="preserve">
<g>
	<path fill="#656565" d="M78.954,13.423H21.042c-2.038,0-3.702,1.664-3.702,3.704v41.489c0,2.037,1.664,3.701,3.702,3.701h57.912
		c2.041,0,3.705-1.664,3.705-3.701V17.126C82.659,15.087,80.995,13.423,78.954,13.423z M76.273,51.637
		c0,1.396-1.128,2.522-2.526,2.522H26.249c-1.394,0-2.522-1.126-2.522-2.522V23.245c0-1.396,1.128-2.524,2.522-2.524h47.498
		c1.398,0,2.526,1.128,2.526,2.524V51.637z"/>
	<path fill="#656565" d="M80.726,66.074H19.271c-1.125,0-1.931,0.857-1.931,1.933v16.639c0,1.02,0.806,1.931,1.931,1.931h61.455
		c1.128,0,1.934-0.911,1.934-1.931V68.007C82.659,66.932,81.854,66.074,80.726,66.074z M75.09,75.092H59.203
		c-0.91,0-1.609-0.697-1.609-1.61s0.699-1.61,1.609-1.61H75.09c0.913,0,1.664,0.697,1.664,1.61S76.003,75.092,75.09,75.092z"/>
</g>
</svg>
