<?xml version="1.0" encoding="utf-8"?>
<!-- Generator: Adobe Illustrator 16.0.0, SVG Export Plug-In . SVG Version: 6.00 Build 0)  -->
<!DOCTYPE svg PUBLIC "-//W3C//DTD SVG 1.1//EN" "http://www.w3.org/Graphics/SVG/1.1/DTD/svg11.dtd">
<svg version="1.1" id="Layer_1" xmlns="http://www.w3.org/2000/svg" xmlns:xlink="http://www.w3.org/1999/xlink" x="0px" y="0px"
	 width="100px" height="100px" viewBox="0 0 100 100" enable-background="new 0 0 100 100" xml:space="preserve">
<g>
	<path fill="#656565" d="M87.723,49.971c0,10.452-4.227,19.876-11.078,26.672c-6.8,6.853-16.221,11.079-26.672,11.079
		c-10.397,0-19.817-4.227-26.672-11.079c-6.796-6.796-11.022-16.221-11.022-26.672c0-10.393,4.227-19.817,11.022-26.67
		c6.855-6.798,16.275-11.024,26.672-11.024c10.451,0,19.872,4.227,26.672,11.024C83.496,30.154,87.723,39.578,87.723,49.971z
		 M73.501,73.501c5.997-5.995,9.767-14.334,9.767-23.53c0-9.195-3.77-17.476-9.767-23.53c-5.997-5.995-14.336-9.71-23.528-9.71
		c-9.197,0-17.476,3.715-23.532,9.71c-5.997,6.054-9.708,14.335-9.708,23.53c0,9.196,3.711,17.535,9.708,23.53
		c6.056,5.997,14.335,9.768,23.532,9.768C59.165,83.269,67.504,79.498,73.501,73.501z"/>
	<path fill="#656565" d="M47.631,46.26V21.071H51v25.016c1.027,0.401,1.826,1.2,2.287,2.228h19.703v3.37H53.227
		c-0.685,1.371-2.113,2.342-3.71,2.342c-2.287,0-4.112-1.828-4.112-4.112C45.404,48.314,46.317,46.888,47.631,46.26z"/>
	<path fill="#656565" d="M49.973,17.532c8.964,0,17.074,3.656,22.957,9.482c5.884,5.881,9.539,13.991,9.539,22.958
		c0,8.968-3.655,17.077-9.539,22.959c-5.883,5.883-13.993,9.537-22.957,9.537c-8.968,0-17.079-3.654-22.962-9.537
		c-5.824-5.883-9.479-13.991-9.479-22.959c0-8.966,3.656-17.077,9.479-22.958C32.894,21.188,41.004,17.532,49.973,17.532z
		 M71.729,28.269c-5.536-5.596-13.249-9.023-21.757-9.023c-8.453,0-16.166,3.427-21.703,9.023c-5.6,5.541-9.023,13.25-9.023,21.703
		c0,8.509,3.423,16.22,9.023,21.761c5.537,5.538,13.25,9.023,21.703,9.023c8.508,0,16.221-3.485,21.757-9.023
		c5.541-5.541,9.023-13.252,9.023-21.761C80.753,41.519,77.271,33.81,71.729,28.269z"/>
</g>
</svg>
