<?xml version="1.0" encoding="utf-8"?>
<!-- Generator: Adobe Illustrator 16.0.0, SVG Export Plug-In . SVG Version: 6.00 Build 0)  -->
<!DOCTYPE svg PUBLIC "-//W3C//DTD SVG 1.1//EN" "http://www.w3.org/Graphics/SVG/1.1/DTD/svg11.dtd">
<svg version="1.1" id="Layer_1" xmlns="http://www.w3.org/2000/svg" xmlns:xlink="http://www.w3.org/1999/xlink" x="0px" y="0px"
	 width="100px" height="100px" viewBox="0 0 100 100" enable-background="new 0 0 100 100" xml:space="preserve">
<g>
	<polygon fill="#656565" points="35.337,30.429 35.337,23.063 79.8,23.063 79.8,76.938 36.087,76.938 36.087,71.074 28.724,71.074 
		28.724,80.622 28.724,83.62 32.406,83.62 83.483,83.62 87.167,83.62 87.167,80.622 87.167,20.063 87.167,16.38 83.483,16.38 
		31.656,16.38 27.972,16.38 27.972,20.063 27.972,30.429 	"/>
	<polygon fill="#656565" points="70.595,49.999 57.569,62.001 44.613,74.006 44.613,59.275 12.833,59.275 12.833,39.906 
		44.613,39.906 44.613,25.996 57.569,37.999 	"/>
</g>
</svg>
