<?xml version="1.0" encoding="utf-8"?>
<!-- Generator: Adobe Illustrator 16.0.0, SVG Export Plug-In . SVG Version: 6.00 Build 0)  -->
<!DOCTYPE svg PUBLIC "-//W3C//DTD SVG 1.1//EN" "http://www.w3.org/Graphics/SVG/1.1/DTD/svg11.dtd">
<svg version="1.1" id="Layer_1" xmlns="http://www.w3.org/2000/svg" xmlns:xlink="http://www.w3.org/1999/xlink" x="0px" y="0px"
	 width="100px" height="100px" viewBox="0 0 100 100" enable-background="new 0 0 100 100" xml:space="preserve">
<g>
	<path fill="#656565" d="M63.019,21.854h7.283c0.986,0,1.833,0.845,1.833,1.833v12.171l14.146,9.68
		c0.706,0.469,0.894,1.41,0.422,2.114c-0.469,0.659-1.41,0.847-2.114,0.377L50.002,24.298L15.365,48.03
		c-0.657,0.47-1.597,0.327-2.066-0.424c-0.471-0.658-0.283-1.598,0.375-2.067l35.151-24.062c0.235-0.329,0.657-0.517,1.08-0.517
		c0.471-0.047,0.94,0.141,1.27,0.517l9.961,6.814v-4.604C61.137,22.7,61.983,21.854,63.019,21.854z M24.202,45.445l25.705-17.811
		l25.706,17.811v29.607c0,2.209-1.785,3.994-3.994,3.994H56.814V53.763H43.798v25.283H28.196c-2.21,0-3.994-1.785-3.994-3.994
		V45.445z"/>
</g>
</svg>
