<?xml version="1.0" encoding="utf-8"?>
<!-- Generator: Adobe Illustrator 16.0.0, SVG Export Plug-In . SVG Version: 6.00 Build 0)  -->
<!DOCTYPE svg PUBLIC "-//W3C//DTD SVG 1.1//EN" "http://www.w3.org/Graphics/SVG/1.1/DTD/svg11.dtd">
<svg version="1.1" id="Layer_1" xmlns="http://www.w3.org/2000/svg" xmlns:xlink="http://www.w3.org/1999/xlink" x="0px" y="0px"
	 width="100px" height="100px" viewBox="0 0 100 100" enable-background="new 0 0 100 100" xml:space="preserve">
<path fill="#656565" d="M19.137,13.441h47.368v15.525h14.358v57.593H19.137V13.441z M69.685,13.494L80.281,26H69.685V13.494z
	 M55.326,62.08l-0.531,0.373l-0.635,0.475l-0.637,0.267l-0.636,0.266l-0.635,0.212l-0.741,0.157l-0.69,0.105L50.08,63.99
	l-0.795-0.056l-0.741-0.105l-0.635-0.157l-0.69-0.212l-0.635-0.266l-0.635-0.267l-0.584-0.475l-0.583-0.373H29.468l0.584,1.644
	l0.688,1.643l0.743,1.537l0.9,1.431l1.006,1.377l1.167,1.27l1.167,1.169l1.376,1.059l1.325,1.008l1.482,0.897l1.486,0.69
	l1.641,0.635l1.643,0.584l1.802,0.373l1.696,0.157l1.802,0.105l1.854-0.105l1.8-0.157l1.697-0.373l1.643-0.584l1.589-0.635
	l1.537-0.69l1.481-0.897l1.432-1.008l1.272-1.059l1.271-1.169l1.059-1.27l1.008-1.377l0.9-1.431l0.794-1.537l0.637-1.643
	l0.529-1.644H55.326z M44.569,50.53l0.531-0.425l0.635-0.475l0.635-0.319l0.741-0.317l0.69-0.159l0.741-0.159l0.741-0.213h1.537
	l0.796,0.213l0.741,0.159l0.69,0.159l0.635,0.317l0.635,0.319l0.636,0.475l0.529,0.425h14.995l-0.529-1.695l-0.637-1.537
	l-0.794-1.537l-0.9-1.431l-1.008-1.376l-1.164-1.271l-1.166-1.168l-1.272-1.059l-1.432-1.008l-1.481-0.9l-1.537-0.741l-1.589-0.637
	l-1.643-0.423l-1.697-0.371l-1.8-0.265l-1.854-0.106l-1.802,0.106l-1.696,0.265l-1.696,0.371l-1.749,0.423l-1.535,0.637
	l-1.537,0.741l-1.537,0.9l-1.325,1.008l-1.271,1.059l-1.272,1.168l-1.112,1.271l-0.955,1.376l-0.9,1.431l-0.849,1.537l-0.637,1.537
	l-0.529,1.695H44.569z M36.357,42.583l0.476-0.425l0.688-0.635l1.007-0.635l1.165-0.741l1.167-0.69l1.006-0.477l0.743-0.265h0.265
	l0.105,0.106l3.339,8.106l0.053,0.265v0.265l-0.053,0.265h-0.212l-0.371,0.212l-0.796,0.529L44.146,49.1l-0.371,0.37l-0.211,0.106
	l-0.161,0.161l-0.157-0.106l-0.372-0.161l-6.517-6.146l-0.106-0.159v-0.371L36.357,42.583z M48.173,37.337l-0.159-0.053
	l-0.267-0.106h-0.529l-0.583,0.106l-0.317,0.053L46,37.442l-0.053,0.106v0.159l1.96,9.22l0.635-0.053h0.265l0.265,0.053
	l-0.688-9.008l-0.106-0.263L48.173,37.337z"/>
</svg>
