<?xml version="1.0" encoding="utf-8"?>
<!-- Generator: Adobe Illustrator 16.0.0, SVG Export Plug-In . SVG Version: 6.00 Build 0)  -->
<!DOCTYPE svg PUBLIC "-//W3C//DTD SVG 1.1//EN" "http://www.w3.org/Graphics/SVG/1.1/DTD/svg11.dtd">
<svg version="1.1" id="Layer_1" xmlns="http://www.w3.org/2000/svg" xmlns:xlink="http://www.w3.org/1999/xlink" x="0px" y="0px"
	 width="100px" height="100px" viewBox="0 0 100 100" enable-background="new 0 0 100 100" xml:space="preserve">
<g>
	<path fill="#656565" d="M66.305,29.253V13.941H19.531v72.118H80.47V29.253H66.305z M67.402,53.187L47.856,72.732l-0.052,0.054
		h-0.052L47.7,72.837v0.054l-0.052,0.05h-0.052l-0.052,0.055h-0.052l-0.052,0.054L47.387,73.1h-0.052l-0.052,0.054h-0.054
		l-0.05,0.051h-0.054l-0.052,0.054h-0.104l-0.052,0.051h-0.104l-0.052,0.054h-0.209l-0.052,0.05h-0.679l-0.052-0.05h-0.157
		l-0.052-0.054h-0.104l-0.052-0.051h-0.157l-0.054-0.054h-0.052c-0.208-0.104-0.47-0.264-0.679-0.472L32.596,60.817
		c-0.941-0.94-0.941-2.456,0-3.396l1.881-1.88c0.94-0.943,2.456-0.943,3.397,0l8.309,8.257l15.889-15.888
		c0.939-0.941,2.456-0.941,3.396,0l1.934,1.88C68.292,50.732,68.292,52.247,67.402,53.187z"/>
	<polygon fill="#656565" points="69.44,13.993 79.84,26.328 69.44,26.328 	"/>
</g>
</svg>
