<?xml version="1.0" encoding="utf-8"?>
<!-- Generator: Adobe Illustrator 16.0.0, SVG Export Plug-In . SVG Version: 6.00 Build 0)  -->
<!DOCTYPE svg PUBLIC "-//W3C//DTD SVG 1.1//EN" "http://www.w3.org/Graphics/SVG/1.1/DTD/svg11.dtd">
<svg version="1.1" id="Layer_1" xmlns="http://www.w3.org/2000/svg" xmlns:xlink="http://www.w3.org/1999/xlink" x="0px" y="0px"
	 width="100px" height="100px" viewBox="0 0 100 100" enable-background="new 0 0 100 100" xml:space="preserve">
<g>
	<path fill="#656565" d="M74.913,52.717l11.171-11l-35.448,7.734l7.733-35.449L47.327,25.174l-5.841,25.867l-1.634,1.633
		c-0.344-1.505-1.116-2.878-2.321-4.083c-4.296-4.296-12.502-4.382-18.302-0.258c-5.803,4.126-7.049,10.957-2.75,15.255
		c4.254,4.297,12.461,4.383,18.261,0.258c1.717-1.245,3.05-2.708,3.953-4.253l1.634,1.631c-1.548,0.903-3.052,2.192-4.254,3.954
		c-4.168,5.801-4.039,14.008,0.257,18.263c4.296,4.296,11.129,3.049,15.253-2.751c4.124-5.844,4.038-14.008-0.258-18.306
		c-1.03-1.03-2.235-1.761-3.523-2.147l1.72-1.719L74.913,52.717z M23.008,58.604c-3.78-3.78,4.512-8.938,8.077-5.415
		C34.395,56.67,26.401,60.837,23.008,58.604z M41.269,76.864c-2.191-3.352,1.978-11.344,5.457-8.035
		C50.249,72.396,45.094,80.689,41.269,76.864z"/>
</g>
</svg>
