<?xml version="1.0" encoding="utf-8"?>
<!-- Generator: Adobe Illustrator 16.0.0, SVG Export Plug-In . SVG Version: 6.00 Build 0)  -->
<!DOCTYPE svg PUBLIC "-//W3C//DTD SVG 1.1//EN" "http://www.w3.org/Graphics/SVG/1.1/DTD/svg11.dtd">
<svg version="1.1" id="Layer_1" xmlns="http://www.w3.org/2000/svg" xmlns:xlink="http://www.w3.org/1999/xlink" x="0px" y="0px"
	 width="100px" height="100px" viewBox="0 0 100 100" enable-background="new 0 0 100 100" xml:space="preserve">
<g>
	<path fill="#656565" d="M49.974,23.503c-14.646,0-26.523,11.877-26.523,26.523c0,14.65,11.877,26.523,26.523,26.523
		c14.65,0,26.523-11.873,26.523-26.523C76.497,35.38,64.624,23.503,49.974,23.503z M52.589,53.73c-1.145,1.198-3.05,1.198-4.248,0
		c-0.818-0.816-1.036-2.016-0.709-3.049L34.614,37.665l1.745-1.688l12.961,12.907c0.709-0.327,1.523-0.327,2.29-0.055l10.185-10.185
		l1.741,1.743L53.295,50.626C53.678,51.662,53.46,52.914,52.589,53.73z"/>
	<path fill="#656565" d="M75.409,24.593c-6.48-6.535-15.469-10.565-25.436-10.565c-9.911,0-18.898,4.03-25.435,10.565
		c-6.481,6.481-10.511,15.523-10.511,25.434c0,9.914,4.03,18.9,10.511,25.436c6.537,6.48,15.524,10.511,25.435,10.511
		c9.967,0,18.955-4.03,25.436-10.511c6.533-6.535,10.563-15.521,10.563-25.436C85.973,40.116,81.942,31.074,75.409,24.593z
		 M72.414,72.467c-5.719,5.719-13.671,9.258-22.44,9.258c-8.77,0-16.666-3.539-22.437-9.258c-5.719-5.775-9.261-13.671-9.261-22.44
		c0-8.768,3.542-16.718,9.261-22.437c5.771-5.719,13.667-9.26,22.437-9.26c8.77,0,16.722,3.541,22.44,9.26
		c5.72,5.719,9.311,13.669,9.311,22.437C81.725,58.796,78.134,66.691,72.414,72.467z"/>
</g>
</svg>
