<?xml version="1.0" encoding="utf-8"?>
<!-- Generator: Adobe Illustrator 16.0.0, SVG Export Plug-In . SVG Version: 6.00 Build 0)  -->
<!DOCTYPE svg PUBLIC "-//W3C//DTD SVG 1.1//EN" "http://www.w3.org/Graphics/SVG/1.1/DTD/svg11.dtd">
<svg version="1.1" id="Layer_1" xmlns="http://www.w3.org/2000/svg" xmlns:xlink="http://www.w3.org/1999/xlink" x="0px" y="0px"
	 width="100px" height="100px" viewBox="0 0 100 100" enable-background="new 0 0 100 100" xml:space="preserve">
<g>
	<path fill="#656565" d="M51.895,37.497h-6.373v-6.316c0-2.032-1.646-3.679-3.679-3.679c-1.976,0-3.625,1.646-3.625,3.679v6.316
		h-6.369c-1.979,0-3.625,1.648-3.683,3.68c0.057,2.032,1.703,3.681,3.683,3.681h6.369v6.316c0,2.031,1.65,3.68,3.625,3.68
		c2.032,0,3.679-1.648,3.679-3.68v-6.316h6.373c1.976,0,3.626-1.648,3.626-3.681S53.87,37.497,51.895,37.497z"/>
	<path fill="#656565" d="M84.464,72.431L68.152,56.063c-0.219-0.22-0.495-0.44-0.768-0.66c2.361-4.173,3.678-8.951,3.678-14.061
		c0-16.039-13.071-29.055-29.11-29.055S12.899,25.303,12.899,41.342c0,16.038,13.015,29.109,29.054,29.109
		c4.503,0,8.734-1.042,12.523-2.855c0.276,0.441,0.605,0.823,0.987,1.209l16.315,16.312c3.516,3.463,9.227,3.463,12.686,0
		C87.979,81.603,87.979,75.89,84.464,72.431z M41.953,59.247c-9.832,0-17.852-8.018-17.852-17.905
		c0-9.832,8.02-17.851,17.852-17.851c9.885,0,17.905,8.019,17.905,17.851C59.857,51.229,51.838,59.247,41.953,59.247z"/>
</g>
</svg>
