<?xml version="1.0" encoding="utf-8"?>
<!-- Generator: Adobe Illustrator 16.0.0, SVG Export Plug-In . SVG Version: 6.00 Build 0)  -->
<!DOCTYPE svg PUBLIC "-//W3C//DTD SVG 1.1//EN" "http://www.w3.org/Graphics/SVG/1.1/DTD/svg11.dtd">
<svg version="1.1" id="Layer_1" xmlns="http://www.w3.org/2000/svg" xmlns:xlink="http://www.w3.org/1999/xlink" x="0px" y="0px"
	 width="100px" height="100px" viewBox="0 0 100 100" enable-background="new 0 0 100 100" xml:space="preserve">
<g>
	<path fill="#656565" d="M51.62,37.497H31.626c-2.032,0-3.678,1.648-3.678,3.68s1.646,3.681,3.678,3.681H51.62
		c2.032,0,3.683-1.648,3.683-3.681S53.652,37.497,51.62,37.497z"/>
	<path fill="#656565" d="M84.466,72.431L68.154,56.063c-0.276-0.22-0.496-0.44-0.769-0.66c2.306-4.173,3.622-8.951,3.622-14.061
		c0-16.039-13.015-29.055-29.053-29.055c-16.039,0-29.058,13.017-29.058,29.055c0,16.038,13.019,29.109,29.058,29.109
		c4.447,0,8.678-1.042,12.466-2.855c0.329,0.441,0.662,0.823,0.991,1.209L71.78,85.116c3.459,3.463,9.17,3.463,12.686,0
		C87.981,81.603,87.981,75.89,84.466,72.431z M41.955,59.247c-9.833,0-17.852-8.018-17.852-17.905
		c0-9.832,8.019-17.851,17.852-17.851c9.885,0,17.851,8.019,17.851,17.851C59.806,51.229,51.84,59.247,41.955,59.247z"/>
</g>
</svg>
