<?xml version="1.0" encoding="utf-8"?>
<!-- Generator: Adobe Illustrator 16.0.0, SVG Export Plug-In . SVG Version: 6.00 Build 0)  -->
<!DOCTYPE svg PUBLIC "-//W3C//DTD SVG 1.1//EN" "http://www.w3.org/Graphics/SVG/1.1/DTD/svg11.dtd">
<svg version="1.1" id="Layer_1" xmlns="http://www.w3.org/2000/svg" xmlns:xlink="http://www.w3.org/1999/xlink" x="0px" y="0px"
	 width="100px" height="100px" viewBox="0 0 100 100" enable-background="new 0 0 100 100" xml:space="preserve">
<g>
	<polygon fill="none" points="76.753,59.564 71.984,64.329 65.759,58.104 59.422,64.44 65.647,70.612 61.16,75.153 69.295,75.489 
		77.426,75.829 77.09,67.694 	"/>
	<polygon fill="none" points="38.953,24.454 30.818,24.117 22.688,23.781 23.024,31.914 23.304,40.046 28.129,35.277 34.354,41.503 
		40.634,35.166 34.409,28.94 	"/>
	<path fill="#656565" d="M14.779,14.75v70.5h70.44v-70.5H14.779z M38.953,75.153l-8.135,0.336l-8.13,0.34l0.336-8.135l0.28-8.13
		l4.825,4.765l6.226-6.226l6.279,6.337l-6.225,6.172L38.953,75.153z M34.354,41.503l-6.226-6.226l-4.825,4.769l-0.28-8.132
		l-0.336-8.132l8.13,0.336l8.135,0.336l-4.544,4.486l6.225,6.226L34.354,41.503z M69.295,75.489l-8.135-0.336l4.487-4.541
		l-6.226-6.172l6.337-6.337l6.226,6.226l4.769-4.765l0.337,8.13l0.336,8.135L69.295,75.489z M77.09,31.914l-0.337,8.132
		l-4.769-4.769l-6.226,6.226l-6.337-6.337l6.226-6.226l-4.487-4.486l8.135-0.336l8.131-0.336L77.09,31.914z"/>
</g>
</svg>
