<?xml version="1.0" encoding="utf-8"?>
<!-- Generator: Adobe Illustrator 16.0.0, SVG Export Plug-In . SVG Version: 6.00 Build 0)  -->
<!DOCTYPE svg PUBLIC "-//W3C//DTD SVG 1.1//EN" "http://www.w3.org/Graphics/SVG/1.1/DTD/svg11.dtd">
<svg version="1.1" id="Layer_1" xmlns="http://www.w3.org/2000/svg" xmlns:xlink="http://www.w3.org/1999/xlink" x="0px" y="0px"
	 width="100px" height="100px" viewBox="0 0 100 100" enable-background="new 0 0 100 100" xml:space="preserve">
<g>
	<path fill="#656565" d="M81.389,41.474h-6.832c-0.099,3.54-2.95,6.439-6.539,6.439c-3.54,0-6.441-2.899-6.488-6.439H38.521
		c-0.049,3.54-2.949,6.439-6.54,6.439c-3.54,0-6.439-2.899-6.488-6.439h-6.834c-3.049,0-5.555,2.507-5.555,5.555
		c0,2.9,2.31,5.31,5.162,5.506l7.276,27.335c0.344,1.375,1.179,2.604,2.605,2.604h42.722c1.477,0,2.213-1.229,2.655-2.604
		l8.259-27.335c2.852-0.196,5.114-2.606,5.114-5.506C86.896,43.981,84.438,41.474,81.389,41.474z M63.839,68.809
		c0.786,0,1.426,0.639,1.426,1.424c0,0.788-0.64,1.427-1.426,1.427H36.21c-0.788,0-1.426-0.639-1.426-1.427
		c0-0.785,0.638-1.424,1.426-1.424 M67.87,65.465H32.177c-0.786,0-1.424-0.64-1.424-1.426s0.639-1.426,1.424-1.426H67.87
		c0.786,0,1.426,0.64,1.426,1.426S68.656,65.465,67.87,65.465z M71.557,58.827H28.492c-0.788,0-1.426-0.638-1.426-1.426
		c0-0.786,0.639-1.375,1.426-1.375h43.064c0.788,0,1.427,0.589,1.427,1.375C72.983,58.189,72.345,58.827,71.557,58.827z"/>
	<path fill="#656565" d="M30.243,44.579l0.071,0.042c1.663,0.958,3.791,0.39,4.749-1.274l11.873-20.564
		c0.962-1.663,0.391-3.789-1.272-4.749l-0.073-0.042c-1.663-0.96-3.789-0.389-4.749,1.274L28.97,39.83
		C28.011,41.493,28.58,43.618,30.243,44.579z"/>
	<path fill="#656565" d="M64.96,43.347c0.959,1.664,3.086,2.232,4.749,1.274l0.071-0.042c1.663-0.96,2.234-3.086,1.273-4.749
		L59.182,19.265c-0.961-1.663-3.086-2.234-4.749-1.274l-0.073,0.042c-1.663,0.96-2.232,3.086-1.271,4.749L64.96,43.347z"/>
</g>
</svg>
