<?xml version="1.0" encoding="utf-8"?>
<!-- Generator: Adobe Illustrator 16.0.0, SVG Export Plug-In . SVG Version: 6.00 Build 0)  -->
<!DOCTYPE svg PUBLIC "-//W3C//DTD SVG 1.1//EN" "http://www.w3.org/Graphics/SVG/1.1/DTD/svg11.dtd">
<svg version="1.1" id="Layer_1" xmlns="http://www.w3.org/2000/svg" xmlns:xlink="http://www.w3.org/1999/xlink" x="0px" y="0px"
	 width="100px" height="100px" viewBox="0 0 100 100" enable-background="new 0 0 100 100" xml:space="preserve">
<g>
	<path fill="#656565" d="M60.594,65.903l18.421,18.357c0.305,0.309,0.491,0.74,0.491,1.231c0,0.918-0.8,1.658-1.722,1.658H22.275
		c-0.427,0-0.92-0.123-1.289-0.495c-0.675-0.673-0.675-1.718,0-2.395l18.298-18.298l0.062-0.06c0.677-0.613,1.72-0.677,2.395,0
		l3.008,2.949c0.677,0.735,1.413,1.227,2.271,1.595h0.063c0.92,0.368,1.841,0.554,2.886,0.554c1.104,0,2.026-0.186,2.887-0.554
		c0.858-0.309,1.658-0.859,2.395-1.595l2.948-2.89l0.06-0.06C58.936,65.227,59.977,65.227,60.594,65.903z"/>
	<path fill="#656565" d="M79.629,41.034c0,0.493-0.123,0.922-0.491,1.229l-12.346,12.34V44.535h-7.488v-8.106H34.618v19.651
		L20.925,42.385c-0.368-0.307-0.552-0.797-0.552-1.291v-0.123c0-0.491,0.184-0.981,0.552-1.288l23.333-23.271
		c1.106-1.106,2.088-1.965,2.949-2.518c1.043-0.738,1.963-1.045,2.763-1.045c0.859,0,1.781,0.307,2.823,1.045
		c0.862,0.552,1.845,1.411,2.948,2.518l0.063,0.061l23.333,23.333C79.506,40.113,79.629,40.604,79.629,41.034z M60.04,61.419
		l-1.413,1.354H41.373l-1.413-1.354H60.04z M56.541,64.858l-0.736,0.8l-0.063,0.059l-0.613,0.555H44.872l-0.614-0.555l-0.797-0.858
		H56.541z M37.874,59.27l-0.063-0.06v-1.29h18.976v1.35H37.874z M60.962,36.428l5.525,6.509h-5.525V36.428z M37.81,50.921h19.649
		v1.41H37.81V50.921z M37.81,54.421h21.985v1.413H37.81V54.421z"/>
	<path fill="#656565" d="M20.25,44.228l18.298,18.113c0.675,0.613,0.675,1.658,0.062,2.336L20.373,83.22
		c-0.307,0.305-0.797,0.55-1.291,0.55c-0.92,0-1.656-0.735-1.656-1.658V45.455c0-0.429,0.182-0.859,0.491-1.166
		C18.53,43.614,19.635,43.614,20.25,44.228z"/>
	<path fill="#656565" d="M82.573,45.455v36.657c0,0.432-0.182,0.863-0.491,1.168c-0.672,0.677-1.717,0.677-2.395,0L61.39,64.677
		c-0.613-0.678-0.613-1.723,0-2.336l18.176-17.99c0.309-0.368,0.8-0.613,1.29-0.613C81.837,43.737,82.573,44.473,82.573,45.455z"/>
</g>
</svg>
