<?xml version="1.0" encoding="utf-8"?>
<!-- Generator: Adobe Illustrator 16.0.0, SVG Export Plug-In . SVG Version: 6.00 Build 0)  -->
<!DOCTYPE svg PUBLIC "-//W3C//DTD SVG 1.1//EN" "http://www.w3.org/Graphics/SVG/1.1/DTD/svg11.dtd">
<svg version="1.1" id="Layer_1" xmlns="http://www.w3.org/2000/svg" xmlns:xlink="http://www.w3.org/1999/xlink" x="0px" y="0px"
	 width="100px" height="100px" viewBox="0 0 100 100" enable-background="new 0 0 100 100" xml:space="preserve">
<g>
	<path fill="#656565" d="M80.493,47.956v34.342c0,0.425-0.16,0.796-0.479,1.114c-0.637,0.585-1.646,0.585-2.229,0l-17.143-17.41
		c-0.585-0.637-0.585-1.644,0.051-2.229L77.68,46.948c0.319-0.318,0.744-0.53,1.221-0.53C79.749,46.418,80.493,47.107,80.493,47.956
		z M22.16,46.842l17.145,16.931c0.583,0.586,0.583,1.593,0,2.229L22.213,83.358c-0.265,0.318-0.689,0.53-1.167,0.53
		c-0.851,0-1.54-0.742-1.54-1.591V47.956c0-0.371,0.106-0.795,0.424-1.114C20.516,46.257,21.523,46.257,22.16,46.842z
		 M23.806,42.329h11.145l10.617,10.617c2.07,2.069,5.413,2.069,7.537,0l10.563-10.617h12.475c0.424,0,0.849,0.161,1.113,0.479
		c0.637,0.636,0.637,1.593,0,2.229L55.387,66.853l-0.053,0.105c-1.008,1.008-1.911,1.805-2.708,2.335
		c-1.008,0.637-1.858,1.01-2.653,1.01c-0.743,0-1.644-0.373-2.6-1.01c-0.851-0.53-1.752-1.327-2.76-2.335L22.743,45.09
		c-0.318-0.265-0.53-0.689-0.53-1.168C22.213,43.021,22.904,42.329,23.806,42.329z M59.951,67.117l17.198,17.251
		c0.265,0.266,0.424,0.637,0.424,1.061c0,0.903-0.689,1.593-1.538,1.593H24.018c-0.424,0-0.85-0.106-1.22-0.478
		c-0.585-0.585-0.585-1.593,0-2.176L39.994,67.17c0.636-0.636,1.646-0.636,2.229-0.053l2.814,2.813
		c0.636,0.639,1.379,1.115,2.176,1.434l0.053,0.053c0.849,0.318,1.75,0.478,2.707,0.478c1.007,0,1.911-0.159,2.708-0.478
		c0.796-0.317,1.54-0.848,2.228-1.486l2.761-2.76h0.053v-0.053C58.306,66.534,59.314,66.534,59.951,67.117z M57.722,67.17v-0.053
		V67.17z"/>
	<path fill="#656565" d="M66.958,31.767c1.54,1.54,1.54,4.087,0,5.626L52.096,52.201c-1.54,1.54-4.034,1.54-5.574,0L31.714,37.394
		c-1.54-1.54-1.54-4.087,0-5.626c2.123-1.964,8.015,2.441,13.323,4.458V15.632c0-1.434,1.167-2.653,2.601-2.653h3.98
		c1.434,0,2.603,1.22,2.603,2.653v20.381C59.209,33.89,64.57,29.962,66.958,31.767z"/>
</g>
</svg>
