<?xml version="1.0" encoding="utf-8"?>
<!-- Generator: Adobe Illustrator 16.0.0, SVG Export Plug-In . SVG Version: 6.00 Build 0)  -->
<!DOCTYPE svg PUBLIC "-//W3C//DTD SVG 1.1//EN" "http://www.w3.org/Graphics/SVG/1.1/DTD/svg11.dtd">
<svg version="1.1" id="Layer_1" xmlns="http://www.w3.org/2000/svg" xmlns:xlink="http://www.w3.org/1999/xlink" x="0px" y="0px"
	 width="100px" height="100px" viewBox="0 0 100 100" enable-background="new 0 0 100 100" xml:space="preserve">
<g>
	<path fill="#656565" d="M86.958,29.728v41.625c0,0.484-0.242,0.969-0.605,1.332c-0.727,0.789-1.937,0.729-2.663,0L62.908,51.601
		c-0.73-0.726-0.73-1.939,0.059-2.666l20.602-20.418c0.363-0.423,0.905-0.666,1.452-0.666C86.11,27.852,86.958,28.699,86.958,29.728
		z M16.254,28.396l20.781,20.539c0.726,0.727,0.726,1.939,0,2.666l-20.66,21.023c-0.365,0.365-0.908,0.668-1.455,0.668
		c-1.031,0-1.878-0.91-1.878-1.939V29.728c0-0.484,0.184-0.969,0.547-1.332C14.315,27.668,15.525,27.668,16.254,28.396z
		 M18.251,22.942h63.438c0.484,0,1.027,0.181,1.391,0.547c0.73,0.787,0.73,1.937,0,2.726L56.546,52.692l-0.063,0.061
		c-1.211,1.211-2.362,2.182-3.331,2.847c-1.153,0.787-2.243,1.211-3.153,1.211c-0.968,0-1.998-0.424-3.21-1.211
		c-0.969-0.665-2.06-1.636-3.271-2.847L17.041,26.275c-0.424-0.363-0.666-0.849-0.666-1.455
		C16.375,23.792,17.222,22.942,18.251,22.942z M62.057,52.995L82.9,73.837c0.301,0.363,0.547,0.848,0.547,1.332
		c0,1.03-0.852,1.878-1.879,1.878H18.556c-0.547,0.061-1.092-0.121-1.455-0.545c-0.787-0.727-0.787-1.938,0-2.665l20.781-20.781
		l0.061-0.061c0.727-0.729,1.939-0.729,2.667,0l3.392,3.331c0.787,0.787,1.697,1.395,2.605,1.818h0.121
		c0.971,0.424,2.06,0.605,3.271,0.605c1.152,0,2.243-0.182,3.274-0.605c0.968-0.363,1.878-0.969,2.663-1.818l3.394-3.271v-0.061
		C60.119,52.267,61.33,52.267,62.057,52.995z"/>
</g>
</svg>
