<?xml version="1.0" encoding="utf-8"?>
<!-- Generator: Adobe Illustrator 16.0.0, SVG Export Plug-In . SVG Version: 6.00 Build 0)  -->
<!DOCTYPE svg PUBLIC "-//W3C//DTD SVG 1.1//EN" "http://www.w3.org/Graphics/SVG/1.1/DTD/svg11.dtd">
<svg version="1.1" id="Layer_1" xmlns="http://www.w3.org/2000/svg" xmlns:xlink="http://www.w3.org/1999/xlink" x="0px" y="0px"
	 width="100px" height="100px" viewBox="0 0 100 100" enable-background="new 0 0 100 100" xml:space="preserve">
<g>
	<path fill="#656565" d="M87.678,73.69c0,1.737-0.299,2.994-1.02,3.654c-0.658,0.719-1.795,1.018-3.413,1.018h-66.49
		c-1.197,0-2.216-0.299-2.994-1.018c-0.96-0.84-1.438-2.036-1.438-3.654v-47.74c0-1.139,0.479-2.157,1.378-2.997
		c0.958-0.897,1.977-1.316,3.054-1.316h66.49c1.498,0,2.635,0.419,3.354,1.197c0.72,0.84,1.079,1.857,1.079,3.116V73.69z
		 M36.462,49.969L16.755,30.503v39.533L36.462,49.969z M80.129,25.831H19.931l25.218,25.217c2.216,2.217,3.834,3.354,4.852,3.354
		c1.077,0,2.695-1.137,4.911-3.354L80.129,25.831z M80.01,73.631L60.184,53.863l-3.235,3.174c-1.857,1.857-4.193,2.816-6.948,2.816
		c-2.695,0-5.031-0.959-6.888-2.816l-3.236-3.174L20.051,73.631H80.01z M83.305,70.036V30.503L63.598,49.969L83.305,70.036z"/>
</g>
</svg>
