<?xml version="1.0" encoding="utf-8"?>
<!-- Generator: Adobe Illustrator 16.0.0, SVG Export Plug-In . SVG Version: 6.00 Build 0)  -->
<!DOCTYPE svg PUBLIC "-//W3C//DTD SVG 1.1//EN" "http://www.w3.org/Graphics/SVG/1.1/DTD/svg11.dtd">
<svg version="1.1" id="Layer_1" xmlns="http://www.w3.org/2000/svg" xmlns:xlink="http://www.w3.org/1999/xlink" x="0px" y="0px"
	 width="100px" height="100px" viewBox="0 0 100 100" enable-background="new 0 0 100 100" xml:space="preserve">
<g>
	<path fill="#656565" d="M24.442,24.417c14.109-14.111,37.006-14.111,51.115,0c14.161,14.159,14.161,37.056,0,51.167
		c-14.109,14.11-37.006,14.11-51.115,0C10.281,61.473,10.281,38.576,24.442,24.417z M34.835,29.637l35.553,35.551
		c7.38-9.992,6.577-24.101-2.411-33.14C58.94,23.01,44.779,22.208,34.835,29.637z M65.164,70.361L29.615,34.86
		c-7.383,9.943-6.581,24.103,2.408,33.091C41.063,76.99,55.225,77.793,65.164,70.361z"/>
</g>
</svg>
