<?xml version="1.0" encoding="utf-8"?>
<!-- Generator: Adobe Illustrator 16.0.0, SVG Export Plug-In . SVG Version: 6.00 Build 0)  -->
<!DOCTYPE svg PUBLIC "-//W3C//DTD SVG 1.1//EN" "http://www.w3.org/Graphics/SVG/1.1/DTD/svg11.dtd">
<svg version="1.1" id="Layer_1" xmlns="http://www.w3.org/2000/svg" xmlns:xlink="http://www.w3.org/1999/xlink" x="0px" y="0px"
	 width="100px" height="100px" viewBox="0 0 100 100" enable-background="new 0 0 100 100" xml:space="preserve">
<g>
	<path fill="#656565" d="M45.557,13.714h9.202c1.504,0,2.7,1.194,2.7,2.703V51.87c0,1.458-1.196,2.704-2.7,2.704h-9.202
		c-1.508,0-2.705-1.246-2.705-2.704V16.417C42.852,14.909,44.049,13.714,45.557,13.714z M61.93,22.135
		c12.426,4.782,21.212,16.844,21.212,30.985c0,18.297-14.814,33.165-33.115,33.165c-18.35,0-33.168-14.868-33.168-33.165
		c0-14.245,8.944-26.358,21.523-31.088v10.917C31.415,36.952,26.737,44.49,26.737,53.12c0,12.841,10.398,23.29,23.29,23.29
		c12.841,0,23.236-10.449,23.236-23.29c0-8.526-4.521-15.96-11.333-20.015V22.135z"/>
</g>
</svg>
