<?xml version="1.0" encoding="utf-8"?>
<!-- Generator: Adobe Illustrator 16.0.0, SVG Export Plug-In . SVG Version: 6.00 Build 0)  -->
<!DOCTYPE svg PUBLIC "-//W3C//DTD SVG 1.1//EN" "http://www.w3.org/Graphics/SVG/1.1/DTD/svg11.dtd">
<svg version="1.1" id="Layer_1" xmlns="http://www.w3.org/2000/svg" xmlns:xlink="http://www.w3.org/1999/xlink" x="0px" y="0px"
	 width="100px" height="100px" viewBox="0 0 100 100" enable-background="new 0 0 100 100" xml:space="preserve">
<g>
	<path fill="#656565" d="M49.975,12.826c20.534,0,37.199,16.666,37.199,37.199c0,20.484-16.665,37.149-37.199,37.149
		c-20.483,0-37.149-16.665-37.149-37.149C12.826,29.492,29.492,12.826,49.975,12.826z M70.924,34.444L55.343,50.025l15.581,15.53
		c3.25-4.334,5.158-9.7,5.158-15.53C76.082,44.195,74.174,38.777,70.924,34.444z M65.557,70.973L49.975,55.391l-15.528,15.53
		c4.333,3.251,9.698,5.16,15.528,5.16C55.806,76.081,61.223,74.172,65.557,70.973z M29.079,65.555l15.532-15.53L29.079,34.444
		c-3.249,4.333-5.158,9.751-5.158,15.581C23.921,55.854,25.83,61.221,29.079,65.555z M34.394,29.078l15.581,15.583l15.582-15.583
		c-4.334-3.25-9.751-5.158-15.582-5.158C44.145,23.919,38.781,25.828,34.394,29.078z"/>
</g>
</svg>
