<?xml version="1.0" encoding="utf-8"?>
<!-- Generator: Adobe Illustrator 16.0.0, SVG Export Plug-In . SVG Version: 6.00 Build 0)  -->
<!DOCTYPE svg PUBLIC "-//W3C//DTD SVG 1.1//EN" "http://www.w3.org/Graphics/SVG/1.1/DTD/svg11.dtd">
<svg version="1.1" id="Layer_1" xmlns="http://www.w3.org/2000/svg" xmlns:xlink="http://www.w3.org/1999/xlink" x="0px" y="0px"
	 width="100px" height="100px" viewBox="0 0 100 100" enable-background="new 0 0 100 100" xml:space="preserve">
<g>
	<path fill="#656565" d="M87.103,50.023c0,10.238-3.603,19.034-10.861,26.291C68.985,83.571,60.236,87.176,50,87.176
		c-10.239,0-18.985-3.604-26.241-10.862C16.5,69.057,12.897,60.261,12.897,50.023c0-10.284,3.603-19.031,10.862-26.289
		c7.255-7.257,16.001-10.91,26.241-10.91c10.236,0,18.985,3.653,26.241,10.91C83.5,30.992,87.103,39.739,87.103,50.023z
		 M44.903,41.228l-9.226-16.051c-4.325,2.499-7.739,5.911-10.335,10.236c-2.546,4.327-3.795,9.083-3.795,14.322h18.409
		C39.956,45.842,41.588,43.006,44.903,41.228z M63.984,74.68l-9.13-16.101c-0.867,0.527-1.682,0.913-2.55,1.105
		c-0.814,0.192-1.679,0.288-2.689,0.288c-1.732,0-3.269-0.432-4.712-1.394L35.485,74.68c4.421,2.45,9.18,3.7,14.369,3.7
		C54.951,78.38,59.66,77.178,63.984,74.68z M55.335,50.071c0-1.537-0.48-2.835-1.54-3.893c-1.057-1.056-2.354-1.586-3.891-1.586
		c-1.444,0-2.738,0.53-3.845,1.586c-1.156,1.058-1.682,2.356-1.682,3.893c0,1.538,0.526,2.885,1.537,3.942
		c1.056,1.057,2.404,1.585,3.99,1.585c1.491,0,2.739-0.576,3.845-1.681C54.805,52.859,55.335,51.562,55.335,50.071z M78.453,49.735
		c0-5.047-1.252-9.708-3.799-14.083c-2.496-4.325-6.007-7.833-10.573-10.476l-9.13,15.956c3.219,2.068,4.805,4.902,4.805,8.603
		H78.453z"/>
</g>
</svg>
