<?xml version="1.0" encoding="utf-8"?>
<!-- Generator: Adobe Illustrator 16.0.0, SVG Export Plug-In . SVG Version: 6.00 Build 0)  -->
<!DOCTYPE svg PUBLIC "-//W3C//DTD SVG 1.1//EN" "http://www.w3.org/Graphics/SVG/1.1/DTD/svg11.dtd">
<svg version="1.1" id="Layer_1" xmlns="http://www.w3.org/2000/svg" xmlns:xlink="http://www.w3.org/1999/xlink" x="0px" y="0px"
	 width="100px" height="100px" viewBox="0 0 100 100" enable-background="new 0 0 100 100" xml:space="preserve">
<g>
	<path fill="#656565" d="M50.861,87.432h-4.646l-3.625-5.088c0-9.16-0.763-17.618-5.663-22.389
		c-4.071-3.754-6.613-9.096-6.613-15.013c0-11.32,9.221-20.543,20.546-20.543c11.32,0,20.541,9.223,20.541,20.543
		c0,5.917-2.542,11.259-6.613,15.013c-4.896,4.771-5.662,13.229-5.662,22.389l-3.625,5.088H50.861z M44.625,74.33h12.468
		c0.701-6.552,2.481-13.422,5.724-16.538c3.498-3.245,5.663-7.823,5.663-12.913c0-9.731-7.889-17.618-17.618-17.618
		c-9.734,0-17.623,7.887-17.623,17.618c0,5.09,2.165,9.668,5.601,12.913C42.083,60.908,43.928,67.778,44.625,74.33z"/>
	<path fill="#656565" d="M80.181,45.262h-5.343c-0.762,0-1.336-0.574-1.336-1.336c0-0.699,0.574-1.337,1.336-1.337h5.343
		c0.763,0,1.337,0.638,1.337,1.337C81.518,44.688,80.943,45.262,80.181,45.262z"/>
	<path fill="#656565" d="M25.162,45.262h-5.342c-0.763,0-1.337-0.574-1.337-1.336c0-0.699,0.574-1.337,1.337-1.337h5.342
		c0.701,0,1.337,0.638,1.337,1.337C26.499,44.688,25.863,45.262,25.162,45.262z"/>
	<path fill="#656565" d="M72.297,23.571l-3.817,3.754c-0.509,0.508-1.337,0.508-1.846,0c-0.574-0.509-0.574-1.337,0-1.909
		l3.752-3.751c0.508-0.511,1.402-0.511,1.911,0C72.805,22.173,72.805,23.063,72.297,23.571z"/>
	<path fill="#656565" d="M33.366,62.436l-3.751,3.815c-0.569,0.51-1.398,0.51-1.906,0c-0.508-0.509-0.508-1.398,0-1.907l3.751-3.753
		c0.508-0.509,1.398-0.509,1.906,0C33.879,61.099,33.879,61.927,33.366,62.436z"/>
	<path fill="#656565" d="M70.386,66.251l-3.752-3.815c-0.574-0.509-0.574-1.337,0-1.845c0.509-0.509,1.337-0.509,1.846,0
		l3.817,3.753c0.508,0.509,0.508,1.398,0,1.907C71.788,66.761,70.894,66.761,70.386,66.251z"/>
	<path fill="#656565" d="M31.459,27.325l-3.751-3.754c-0.508-0.508-0.508-1.398,0-1.906c0.508-0.511,1.337-0.511,1.906,0
		l3.751,3.751c0.513,0.572,0.513,1.4,0,1.909C32.857,27.833,31.968,27.833,31.459,27.325z"/>
	<path fill="#656565" d="M49.967,19.311v-5.408c0-0.699,0.574-1.334,1.336-1.334c0.701,0,1.337,0.635,1.337,1.334v5.408
		c0,0.699-0.636,1.334-1.337,1.334C50.541,20.646,49.967,20.01,49.967,19.311z"/>
</g>
</svg>
