<?xml version="1.0" encoding="utf-8"?>
<!-- Generator: Adobe Illustrator 16.0.0, SVG Export Plug-In . SVG Version: 6.00 Build 0)  -->
<!DOCTYPE svg PUBLIC "-//W3C//DTD SVG 1.1//EN" "http://www.w3.org/Graphics/SVG/1.1/DTD/svg11.dtd">
<svg version="1.1" id="Layer_1" xmlns="http://www.w3.org/2000/svg" xmlns:xlink="http://www.w3.org/1999/xlink" x="0px" y="0px"
	 width="100px" height="100px" viewBox="0 0 100 100" enable-background="new 0 0 100 100" xml:space="preserve">
<path fill="#656565" d="M40.747,13.955h18.507c1.099,0,1.988,0.89,1.988,1.986v22.846h22.844c1.098,0,1.984,0.888,1.984,1.986
	v18.453c0,1.099-0.887,1.986-1.984,1.986H61.242v22.846c0,1.099-0.89,1.986-1.988,1.986H40.747c-1.095,0-1.985-0.888-1.985-1.986
	V61.213H15.915c-1.095,0-1.985-0.888-1.985-1.986V40.773c0-1.099,0.89-1.986,1.985-1.986h22.847V15.941
	C38.762,14.845,39.651,13.955,40.747,13.955z"/>
</svg>
