<?xml version="1.0" encoding="utf-8"?>
<!-- Generator: Adobe Illustrator 16.0.0, SVG Export Plug-In . SVG Version: 6.00 Build 0)  -->
<!DOCTYPE svg PUBLIC "-//W3C//DTD SVG 1.1//EN" "http://www.w3.org/Graphics/SVG/1.1/DTD/svg11.dtd">
<svg version="1.1" id="Layer_1" xmlns="http://www.w3.org/2000/svg" xmlns:xlink="http://www.w3.org/1999/xlink" x="0px" y="0px"
	 width="100px" height="100px" viewBox="0 0 100 100" enable-background="new 0 0 100 100" xml:space="preserve">
<path fill="#656565" d="M81.866,18.883c-3.289-3.289-7.326-4.884-12.058-4.834c-7.427,0.1-13.806,4.135-19.034,12.159v-0.05
	l-1.298,2.391c0,0-0.546-1.047-1.346-2.491v0.199c-1.943-3.986-4.432-6.927-7.423-8.92c-2.99-1.943-6.328-2.891-9.915-2.891
	c-4.735,0.05-8.872,1.595-12.408,4.535c-3.54,2.991-5.232,6.827-5.232,11.46c0.048,1.595,0.549,3.937,1.494,6.977
	c1.795,4.534,6.431,10.414,14.052,17.688c7.574,7.275,12.858,12.706,15.797,16.294c2.99,3.538,4.934,8.422,5.83,14.551
	c0.749-5.382,3.536-10.813,8.471-16.195c4.934-5.432,10.563-11.41,16.943-17.987c6.327-6.577,9.863-11.61,10.564-15.148
	c0.397-1.245,0.546-2.889,0.546-4.981C86.8,26.457,85.104,22.172,81.866,18.883z"/>
</svg>
