<?xml version="1.0" encoding="utf-8"?>
<!-- Generator: Adobe Illustrator 16.0.0, SVG Export Plug-In . SVG Version: 6.00 Build 0)  -->
<!DOCTYPE svg PUBLIC "-//W3C//DTD SVG 1.1//EN" "http://www.w3.org/Graphics/SVG/1.1/DTD/svg11.dtd">
<svg version="1.1" id="Layer_1" xmlns="http://www.w3.org/2000/svg" xmlns:xlink="http://www.w3.org/1999/xlink" x="0px" y="0px"
	 width="100px" height="100px" viewBox="0 0 100 100" enable-background="new 0 0 100 100" xml:space="preserve">
<path fill="#656565" d="M24.321,68.785l5.282,8.1l4.737,7.378c0.959,1.438,2.881,3.179,5.221,3.179h30.356
	c3.597,0,6.539-2.938,6.539-6.6V30.931c0-3.78-7.143-3.78-7.143,0v18.057c-0.297,0.901-1.137,1.561-2.157,1.561
	c-0.959,0-1.74-0.54-2.1-1.381V22.232c0-3.599-6.659-3.84-7.139-0.36v27.236c-0.359,0.841-1.199,1.44-2.162,1.44
	c-1.017,0-1.86-0.659-2.157-1.561l0.058-33.595c0-3.78-7.139-3.78-7.139,0v33.775c-0.36,0.841-1.199,1.381-2.1,1.381
	c-1.079,0-1.98-0.659-2.219-1.621V22.232c0-3.778-7.139-3.778-7.139,0v36.593h-0.058v2.462c-0.24,0.839-0.959,1.498-1.802,1.618
	h-0.777c-0.781-0.12-1.443-0.66-1.74-1.319V50.429c0-3.84-7.139-3.84-7.139,0v13.977C23.543,67.404,23.903,68.126,24.321,68.785z"/>
</svg>
