<?xml version="1.0" encoding="utf-8"?>
<!-- Generator: Adobe Illustrator 16.0.0, SVG Export Plug-In . SVG Version: 6.00 Build 0)  -->
<!DOCTYPE svg PUBLIC "-//W3C//DTD SVG 1.1//EN" "http://www.w3.org/Graphics/SVG/1.1/DTD/svg11.dtd">
<svg version="1.1" id="Layer_1" xmlns="http://www.w3.org/2000/svg" xmlns:xlink="http://www.w3.org/1999/xlink" x="0px" y="0px"
	 width="100px" height="100px" viewBox="0 0 100 100" enable-background="new 0 0 100 100" xml:space="preserve">
<path fill="#656565" d="M29.366,58.748c0.318,0.771,1.024,1.283,1.793,1.411h0.834c0.958-0.128,1.727-0.898,1.983-1.795V16.706
	c0-2.116,1.731-2.886,3.528-3.014c1.921,0,4.103,0.515,4.103,3.014v28.777c0.384,0.833,1.281,1.473,2.305,1.473
	c1.091,0,1.987-0.704,2.31-1.729v-8.333c0-4.103,7.626-4.038,7.626,0v8.653c0.384,0.833,1.214,1.409,2.177,1.409
	c1.153,0,2.115-0.769,2.438-1.859v-4.935c0.513-3.652,7.561-3.46,7.561,0.45v4.935c0.385,0.833,1.281,1.409,2.243,1.409
	c1.153,0,2.054-0.769,2.372-1.729v-2.051c0-4.038,7.626-4.038,7.626,0v36.147c0,3.908-3.14,6.986-7.048,6.986H38.786
	c-2.5,0-4.487-1.795-5.511-3.398l-5.065-7.818l-5.701-8.653c-0.45-0.704-0.772-1.473-0.772-4.679V46.827
	c0-4.101,7.631-4.101,7.631,0V58.748z"/>
</svg>
