<?xml version="1.0" encoding="utf-8"?>
<!-- Generator: Adobe Illustrator 16.0.0, SVG Export Plug-In . SVG Version: 6.00 Build 0)  -->
<!DOCTYPE svg PUBLIC "-//W3C//DTD SVG 1.1//EN" "http://www.w3.org/Graphics/SVG/1.1/DTD/svg11.dtd">
<svg version="1.1" id="Layer_1" xmlns="http://www.w3.org/2000/svg" xmlns:xlink="http://www.w3.org/1999/xlink" x="0px" y="0px"
	 width="100px" height="100px" viewBox="0 0 100 100" enable-background="new 0 0 100 100" xml:space="preserve">
<g>
	<path fill="#656565" d="M15.085,29.135h26.516c1.592,0,2.865,1.273,2.865,2.865v4.613h12.039v5.25h-7
		c-3.556-1.644-6.684-2.546-8.752-0.584l-0.053,0.053c-0.159,0.161-0.318,0.32-0.477,0.531H27.495c-1.96,0-3.978,1.592-4.507,3.5
		l-8.379,29.222c-1.326-0.212-2.386-1.433-2.386-2.81V32C12.223,30.408,13.547,29.135,15.085,29.135z"/>
	<path fill="#656565" d="M84.771,52.364L77.93,76.281c-0.479,1.699-2.28,3.131-3.979,3.131H19.222c-1.697,0-2.706-1.432-2.227-3.131
		l8.167-28.531c0.479-1.697,2.28-3.13,3.978-3.13h9.758c-0.106,0.477-0.159,0.956-0.159,1.379c0,1.698,0.689,3.395,1.962,4.719
		l18.137,18.137c1.326,1.326,3.021,1.962,4.721,1.962c1.695,0,3.393-0.636,4.666-1.962L84.771,52.364z M55.125,44.621h1.38v0.688
		C56.027,45.098,55.549,44.886,55.125,44.621z M71.353,44.621h0.638l-0.638,0.318V44.621z"/>
	<path fill="#656565" d="M85.144,42.605c1.855,1.856,1.855,4.933,0,6.842L66.951,67.583c-1.856,1.912-4.931,1.912-6.841,0
		L41.974,49.448c-1.856-1.909-1.856-4.986,0-6.842c2.599-2.439,9.863,2.917,16.334,5.463V22.771c0-1.75,1.433-3.183,3.183-3.183
		h4.878c1.751,0,3.184,1.433,3.184,3.183V47.75C75.7,45.15,82.226,40.378,85.144,42.605z"/>
</g>
</svg>
