<?xml version="1.0" encoding="utf-8"?>
<!-- Generator: Adobe Illustrator 16.0.0, SVG Export Plug-In . SVG Version: 6.00 Build 0)  -->
<!DOCTYPE svg PUBLIC "-//W3C//DTD SVG 1.1//EN" "http://www.w3.org/Graphics/SVG/1.1/DTD/svg11.dtd">
<svg version="1.1" id="Layer_1" xmlns="http://www.w3.org/2000/svg" xmlns:xlink="http://www.w3.org/1999/xlink" x="0px" y="0px"
	 width="100px" height="100px" viewBox="0 0 100 100" enable-background="new 0 0 100 100" xml:space="preserve">
<g>
	<path fill="#656565" d="M42.653,45.007H30.876c-1.231,0-2.41,0.256-3.433,0.665c-1.125,0.462-2.099,1.127-2.918,1.997h-0.053
		c-0.818,0.82-1.485,1.792-1.944,2.919c-0.409,1.023-0.667,2.203-0.667,3.432c0,1.228,0.258,2.354,0.667,3.429
		c0.458,1.076,1.125,2.102,1.997,2.92c0.819,0.818,1.792,1.485,2.918,1.945c1.023,0.461,2.202,0.717,3.433,0.717h38.248
		c1.228,0,2.406-0.256,3.429-0.717c1.129-0.46,2.1-1.127,2.971-1.945c0.818-0.818,1.485-1.844,1.948-2.92
		c0.458-1.074,0.663-2.201,0.663-3.429c0-1.229-0.205-2.409-0.663-3.432c-0.409-0.974-0.975-1.895-1.641-2.664l-0.308-0.255
		c-0.871-0.87-1.842-1.535-2.971-1.997c-1.022-0.46-2.201-0.665-3.429-0.665l-6.657-0.051h-1.229v-9.371h7.886
		c2.509,0,4.914,0.512,7.066,1.435c2.251,0.92,4.252,2.304,5.938,3.994l1.129,1.125h-0.053c1.231,1.485,2.202,3.073,2.971,4.865
		c0.872,2.15,1.383,4.505,1.383,7.017c0,2.457-0.511,4.863-1.383,7.014c-0.921,2.254-2.304,4.302-3.993,5.99h-0.054
		c-1.686,1.69-3.687,3.073-5.938,3.996c-2.152,0.921-4.505,1.381-6.964,1.381H30.876c-2.512,0-4.865-0.46-7.017-1.381
		c-2.251-0.923-4.301-2.306-5.991-3.996c-1.69-1.688-3.073-3.736-4.043-5.99c-0.872-2.15-1.383-4.557-1.383-7.014
		c0-2.512,0.512-4.866,1.383-7.017c0.97-2.253,2.353-4.301,4.043-5.991s3.74-3.073,5.991-4.045c2.152-0.872,4.505-1.383,7.017-1.383
		h12.645c-1.175-2.304-3.122-4.403-3.122-7.118c0-1.33,3.122-0.972,4.301,0c4.301,3.38,8.654,6.76,12.955,10.14
		c1.178,0.921,1.178,2.458,0,3.378c-4.301,3.38-8.654,6.76-12.955,10.141c-1.179,0.921-4.301,1.33-4.301,0
		C40.398,50.025,41.577,47.464,42.653,45.007z"/>
</g>
</svg>
