<?xml version="1.0" encoding="utf-8"?>
<!-- Generator: Adobe Illustrator 16.0.0, SVG Export Plug-In . SVG Version: 6.00 Build 0)  -->
<!DOCTYPE svg PUBLIC "-//W3C//DTD SVG 1.1//EN" "http://www.w3.org/Graphics/SVG/1.1/DTD/svg11.dtd">
<svg version="1.1" id="Layer_1" xmlns="http://www.w3.org/2000/svg" xmlns:xlink="http://www.w3.org/1999/xlink" x="0px" y="0px"
	 width="100px" height="100px" viewBox="0 0 100 100" enable-background="new 0 0 100 100" xml:space="preserve">
<g>
	<path fill="#656565" d="M17.54,46.118h5.947v-6.167c0-0.99,0-1.928,0.11-2.863l0.055-0.165v-0.11l0.055-0.277v-0.33l0.055-0.275
		l0.055-0.275v-0.055l0.055-0.275v-0.055l0.055-0.22v-0.11l0.167-0.662v-0.11l0.053-0.22v-0.055l0.057-0.22v-0.055l0.11-0.275
		l0.055-0.33l0.11-0.275v-0.057l0.055-0.22v-0.055l0.11-0.22v-0.11l0.055-0.165l0.055-0.165l0.055-0.11l0.055-0.165v-0.11l0.11-0.22
		l0.22-0.607l0.11-0.275l0.11-0.275v-0.055l0.275-0.605l0.055-0.11l0.055-0.165c0.165-0.275,0.275-0.607,0.442-0.882l0.11-0.275
		c1.265-2.477,2.917-4.735,4.9-6.717c3.745-3.745,8.645-6.387,14.042-7.324l0.33-0.055l0.33-0.055l0.33-0.055l0.33-0.055
		l0.332-0.055l0.33-0.055h0.33l0.33-0.055h0.715l0.332-0.055h2.038l0.33,0.055h0.661l0.33,0.055h0.33l0.33,0.055l0.33,0.055
		l0.33,0.055l0.33,0.055l0.33,0.055l0.33,0.055c5.452,0.937,10.297,3.58,14.041,7.324h0.058c1.21,1.21,2.257,2.532,3.247,3.964
		v0.055c0.44,0.605,0.88,1.322,1.268,1.982l0.109,0.275l0.221,0.44l0.276,0.495v0.055l0.054,0.055l0.22,0.497v0.055l0.11,0.165
		l0.057,0.11c0.11,0.33,0.273,0.605,0.383,0.935l0.11,0.275l0.11,0.332l0.057,0.22l0.053,0.055l0.058,0.22l0.163,0.385v0.165
		l0.167,0.495l0.053,0.055l0.057,0.22v0.057l0.11,0.495l0.11,0.33v0.11l0.057,0.22l0.053,0.165l0.058,0.275l0.109,0.442v0.165
		l0.054,0.11l0.057,0.22v0.22l0.11,0.44v0.33l0.053,0.275v0.055l0.057,0.222c0,0.275,0.054,0.55,0.054,0.77v0.11
		c0.109,0.771,0.109,1.487,0.109,2.258v6.167h5.949v40.471H17.54V46.118z M34.113,46.118h31.719v-6.167
		c0-0.771-0.057-1.542-0.167-2.313l-0.053-0.22v-0.165l-0.058-0.11v-0.165l-0.053-0.055l-0.057-0.332v-0.165l-0.054-0.055v-0.165
		l-0.057-0.11l-0.053-0.22l-0.058-0.22v-0.055l-0.057-0.165l-0.053-0.11v-0.11l-0.11-0.33l-0.057-0.167h-0.054v-0.165l-0.109-0.22
		v-0.055l-0.058-0.055l-0.053-0.165l-0.057-0.11l-0.11-0.22v-0.11l-0.053-0.055l-0.058-0.11l-0.053-0.165v-0.055
		c-0.167-0.275-0.277-0.552-0.44-0.827c-0.22-0.33-0.387-0.66-0.606-0.99l-0.054-0.11l-0.113-0.165l-0.054-0.055v-0.055l-0.167-0.22
		c-0.383-0.552-0.77-0.992-1.21-1.487c-0.163-0.22-0.33-0.385-0.55-0.55v-0.055c-0.11-0.11-0.277-0.222-0.387-0.387l-0.11-0.11
		h-0.053l-0.11-0.11c-1.598-1.43-3.524-2.532-5.619-3.248l-0.163-0.055l-0.22-0.055l-0.167-0.055l-0.221-0.055l-0.163-0.055h-0.22
		l-0.167-0.055l-0.163-0.055l-0.22-0.057l-0.167-0.055H52.78l-0.166-0.055h-0.221l-0.22-0.055h-0.163l-0.221-0.055h-0.165
		l-0.221-0.055h-0.827l-0.165-0.055h-0.825l-0.22,0.055h-0.772l-0.22,0.055h-0.22l-0.165,0.055h-0.22l-0.165,0.055h-0.22
		l-0.22,0.055H47l-0.222,0.055l-0.165,0.057l-0.165,0.055l-0.22,0.055h-0.165l-0.22,0.055l-0.165,0.055l-0.22,0.055l-0.165,0.055
		l-0.165,0.055l-0.22,0.055l-0.167,0.11l-0.165,0.055c-1.65,0.605-3.138,1.432-4.515,2.532l-0.11,0.11l-0.165,0.11l-0.165,0.11
		v0.055l-0.11,0.11l-0.165,0.11l-0.11,0.11l-0.44,0.387v0.055c-0.607,0.605-1.212,1.32-1.708,2.038l-0.22,0.275l-0.055,0.11
		l-0.055,0.055l-0.055,0.055l-0.055,0.11l-0.277,0.495l-0.055,0.11l-0.055,0.055l-0.055,0.055l-0.055,0.11v0.055l-0.055,0.11
		l-0.11,0.165l-0.275,0.552l-0.165,0.385l-0.055,0.055v0.055l-0.055,0.055l-0.11,0.275v0.055l-0.11,0.275v0.055l-0.055,0.11
		l-0.055,0.055v0.055l-0.055,0.165l-0.055,0.167l-0.055,0.165l-0.055,0.11v0.11l-0.055,0.055v0.11l-0.055,0.055v0.165l-0.055,0.165
		l-0.055,0.165l-0.055,0.11l-0.11,0.495v0.165l-0.057,0.167v0.055c-0.053,0.22-0.11,0.495-0.11,0.715
		c-0.11,0.771-0.165,1.487-0.165,2.258h-0.055V46.118z M47.385,64.618l-0.165,1.598l-0.055,1.157
		c-0.22,2.697-0.497,5.835-0.827,9.637h7.323c-0.33-3.802-0.604-6.939-0.827-9.637l-0.11-1.157l-0.109-1.598v-0.053
		c1.434-0.938,2.371-2.478,2.371-4.295c0-2.755-2.205-5.012-4.903-5.068h-0.165c-2.753,0.057-4.955,2.313-4.955,5.068
		c0,1.817,0.99,3.357,2.422,4.295V64.618z"/>
</g>
</svg>
