<?xml version="1.0" encoding="utf-8"?>
<!-- Generator: Adobe Illustrator 16.0.0, SVG Export Plug-In . SVG Version: 6.00 Build 0)  -->
<!DOCTYPE svg PUBLIC "-//W3C//DTD SVG 1.1//EN" "http://www.w3.org/Graphics/SVG/1.1/DTD/svg11.dtd">
<svg version="1.1" id="Layer_1" xmlns="http://www.w3.org/2000/svg" xmlns:xlink="http://www.w3.org/1999/xlink" x="0px" y="0px"
	 width="100px" height="100px" viewBox="0 0 100 100" enable-background="new 0 0 100 100" xml:space="preserve">
<g>
	<path fill="#656565" d="M26.921,51.133h47.668c1.282,0,2.327-0.987,2.327-2.267V15.673c0-1.278-1.045-2.267-2.327-2.267H26.921
		c-1.278,0-2.323,0.989-2.323,2.267v33.193C24.598,50.146,25.643,51.133,26.921,51.133z M28.086,17.533
		c0-0.697,0.521-1.28,1.218-1.28H72.15c0.696,0,1.277,0.583,1.277,1.28v29.474c0,0.697-0.581,1.278-1.277,1.278H29.304
		c-0.697,0-1.218-0.581-1.218-1.278V17.533z"/>
	<path fill="#656565" d="M79.007,81.303H61.512v-2.731c0-0.581-0.465-0.985-0.989-0.985h-8.14v-8.896h22.206
		c1.282,0,2.327-0.989,2.327-2.267v-9.941c0-1.338-1.045-2.323-2.327-2.323H26.921c-1.278,0-2.323,0.985-2.323,2.323v9.941
		c0,1.277,1.045,2.267,2.323,2.267h22.15v8.896h-8.896c-0.521,0-0.985,0.404-0.985,0.985v2.731H20.993
		c-0.292,0-0.524,0.232-0.524,0.524v2.268c0,0.292,0.232,0.524,0.524,0.524h18.197v0.985c0,0.585,0.464,0.989,0.985,0.989h20.348
		c0.524,0,0.989-0.404,0.989-0.989v-0.985h17.495c0.293,0,0.525-0.232,0.525-0.524v-2.268C79.532,81.535,79.3,81.303,79.007,81.303z
		"/>
</g>
</svg>
