<?xml version="1.0" encoding="utf-8"?>
<!-- Generator: Adobe Illustrator 16.0.0, SVG Export Plug-In . SVG Version: 6.00 Build 0)  -->
<!DOCTYPE svg PUBLIC "-//W3C//DTD SVG 1.1//EN" "http://www.w3.org/Graphics/SVG/1.1/DTD/svg11.dtd">
<svg version="1.1" id="Layer_1" xmlns="http://www.w3.org/2000/svg" xmlns:xlink="http://www.w3.org/1999/xlink" x="0px" y="0px"
	 width="100px" height="100px" viewBox="0 0 100 100" enable-background="new 0 0 100 100" xml:space="preserve">
<g>
	<path fill="#656565" d="M44.565,18.929c15.112,0,27.685,10.723,30.512,24.955h11.404l-7.992,9.504l-7.992,9.504l-7.996-9.504
		l-7.992-9.504h11.015c-2.633-9.066-11.015-15.695-20.958-15.695c-12.036,0-21.785,9.747-21.785,21.786
		c0,12.087,9.749,21.836,21.785,21.836c5.021,0,9.651-1.706,13.308-4.533l3.802,8.674c-4.876,3.218-10.773,5.118-17.11,5.118
		c-17.154,0-31.047-13.89-31.047-31.095C13.518,32.82,27.411,18.929,44.565,18.929z"/>
</g>
</svg>
