<?xml version="1.0" encoding="utf-8"?>
<!-- Generator: Adobe Illustrator 16.0.0, SVG Export Plug-In . SVG Version: 6.00 Build 0)  -->
<!DOCTYPE svg PUBLIC "-//W3C//DTD SVG 1.1//EN" "http://www.w3.org/Graphics/SVG/1.1/DTD/svg11.dtd">
<svg version="1.1" id="Layer_1" xmlns="http://www.w3.org/2000/svg" xmlns:xlink="http://www.w3.org/1999/xlink" x="0px" y="0px"
	 width="100px" height="100px" viewBox="0 0 100 100" enable-background="new 0 0 100 100" xml:space="preserve">
<path fill="#656565" d="M14.148,44.105l3.943-3.943c1.919-1.92,5.085-1.92,7.005,0l17.068,17.069l32.74-32.79
	c1.919-1.919,5.085-1.919,7.005,0l3.942,3.943c1.92,1.919,1.92,5.031,0,6.951l-40.21,40.21l-0.104,0.104l-0.104,0.104l-0.104,0.052
	l-0.052,0.104l-0.104,0.052l-0.104,0.104l-0.104,0.052l-0.104,0.052l-0.104,0.105l-0.104,0.05l-0.104,0.054l-0.104,0.052
	l-0.104,0.052l-0.104,0.052l-0.157,0.052l-0.104,0.052l-0.104,0.052l-0.104,0.052h-0.104l-0.104,0.052l-0.155,0.053h-0.104
	l-0.104,0.052h-0.259l-0.104,0.052h-0.208l-0.155,0.052h-0.676l-0.155-0.052h-0.208l-0.104-0.052h-0.259l-0.104-0.052h-0.104
	l-0.155-0.053l-0.104-0.052h-0.104l-0.104-0.052l-0.104-0.052l-0.105-0.052l-0.104-0.052h-0.052
	c-0.466-0.209-0.933-0.572-1.399-0.986l-24.49-24.489C12.229,49.137,12.229,46.025,14.148,44.105z"/>
</svg>
