<?xml version="1.0" encoding="utf-8"?>
<!-- Generator: Adobe Illustrator 16.0.0, SVG Export Plug-In . SVG Version: 6.00 Build 0)  -->
<!DOCTYPE svg PUBLIC "-//W3C//DTD SVG 1.1//EN" "http://www.w3.org/Graphics/SVG/1.1/DTD/svg11.dtd">
<svg version="1.1" id="Layer_1" xmlns="http://www.w3.org/2000/svg" xmlns:xlink="http://www.w3.org/1999/xlink" x="0px" y="0px"
	 width="100px" height="100px" viewBox="0 0 100 100" enable-background="new 0 0 100 100" xml:space="preserve">
<g>
	<path fill="#656565" d="M25.828,61.903c6.776,0,12.268,5.492,12.268,12.266c0,6.778-5.492,12.271-12.268,12.271
		c-6.774,0-12.268-5.492-12.268-12.271C13.56,67.396,19.054,61.903,25.828,61.903z"/>
	<path fill="#656565" d="M20.339,27.172c-3.754,0-6.78-3.08-6.78-6.833c0-3.754,3.026-6.778,6.78-6.778
		c18.26,0,34.787,7.393,46.775,19.326c11.931,11.986,19.325,28.511,19.325,46.775c0,3.751-3.025,6.777-6.777,6.777
		c-3.756,0-6.835-3.026-6.835-6.777c0-14.509-5.825-27.616-15.347-37.142C47.956,33.055,34.848,27.172,20.339,27.172z"/>
	<path fill="#656565" d="M20.339,48.515c-3.754,0-6.78-3.024-6.78-6.778c0-3.753,3.026-6.777,6.78-6.777
		c12.38,0,23.527,4.985,31.649,13.052c8.066,8.122,13.107,19.268,13.107,31.651c0,3.751-3.08,6.777-6.832,6.777
		c-3.755,0-6.778-3.026-6.778-6.777c0-8.627-3.474-16.357-9.132-22.017C36.753,52.046,28.966,48.515,20.339,48.515z"/>
</g>
</svg>
