<?xml version="1.0" encoding="utf-8"?>
<!-- Generator: Adobe Illustrator 16.0.0, SVG Export Plug-In . SVG Version: 6.00 Build 0)  -->
<!DOCTYPE svg PUBLIC "-//W3C//DTD SVG 1.1//EN" "http://www.w3.org/Graphics/SVG/1.1/DTD/svg11.dtd">
<svg version="1.1" id="Layer_1" xmlns="http://www.w3.org/2000/svg" xmlns:xlink="http://www.w3.org/1999/xlink" x="0px" y="0px"
	 width="100px" height="100px" viewBox="0 0 100 100" enable-background="new 0 0 100 100" xml:space="preserve">
<g>
	<path fill="#656565" d="M22.525,24.787h6.451V13.441h42.049v11.345h6.454c5.307,0,9.678,4.319,9.678,9.679v16.966
		c0,5.306-4.371,9.68-9.678,9.68h-3.851V46.539H26.376v14.573h-3.851c-5.31,0-9.681-4.374-9.681-9.68V34.466
		C12.844,29.105,17.215,24.787,22.525,24.787z"/>
	<path fill="#656565" d="M29.603,48.152h42.619v38.406h-44.44V48.152H29.603z M68.579,51.795H31.425v31.067h37.154V51.795z"/>
	<rect x="35.379" y="55.439" fill="#656565" width="24.794" height="2.606"/>
	<rect x="35.379" y="60.642" fill="#656565" width="19.058" height="2.61"/>
	<rect x="35.379" y="65.898" fill="#656565" width="26.003" height="2.61"/>
	<rect x="35.379" y="71.102" fill="#656565" width="22.378" height="2.61"/>
</g>
</svg>
