<?xml version="1.0" encoding="utf-8"?>
<!-- Generator: Adobe Illustrator 16.0.0, SVG Export Plug-In . SVG Version: 6.00 Build 0)  -->
<!DOCTYPE svg PUBLIC "-//W3C//DTD SVG 1.1//EN" "http://www.w3.org/Graphics/SVG/1.1/DTD/svg11.dtd">
<svg version="1.1" id="Layer_1" xmlns="http://www.w3.org/2000/svg" xmlns:xlink="http://www.w3.org/1999/xlink" x="0px" y="0px"
	 width="100px" height="100px" viewBox="0 0 100 100" enable-background="new 0 0 100 100" xml:space="preserve">
<g>
	<path fill="#656565" d="M27.857,29.468h3.595V45.46c-0.369-1.475-2.074-2.626-4.151-2.626H24.03v-8.803
		C24.03,31.542,25.735,29.468,27.857,29.468z M67.307,45.553V35.229l-7.558-5.761h12.397c2.121,0,3.826,2.074,3.826,4.563v8.803
		h-3.273c-2.118,0-3.871,1.197-4.147,2.718H67.307z"/>
	<path fill="#656565" d="M84.036,70.349v2.212c0,1.337-1.426,2.442-3.179,2.442H19.146c-1.753,0-3.182-1.105-3.182-2.442v-2.212
		c0.692,0.415,1.613,0.691,2.534,0.691h6.869v-2.996c0-1.29,1.337-2.304,3.042-2.304h43.229c1.66,0,2.997,1.014,2.997,2.304v2.996
		h6.866C82.471,71.04,83.347,70.764,84.036,70.349z"/>
	<path fill="#656565" d="M32.325,44.724h35.35c0.324-0.692,0.877-1.291,1.569-1.751c0.921-0.599,2.118-0.969,3.455-0.969h8.803
		c2.905,0,5.3,1.797,5.3,4.057v21.753c0,2.213-2.395,4.057-5.3,4.057h-7.974v-3.826c0-0.415-0.185-0.783-0.553-1.06
		c-0.321-0.276-0.829-0.414-1.337-0.414H28.409c-0.552,0-1.016,0.138-1.384,0.414c-0.369,0.276-0.553,0.645-0.553,1.06v3.826h-7.974
		c-2.902,0-5.3-1.844-5.3-4.057V46.061c0-2.259,2.397-4.057,5.3-4.057h8.803c1.337,0,2.538,0.37,3.458,0.969
		C31.452,43.433,32.004,44.032,32.325,44.724z M68.552,46.383H30.527l-0.137-0.692c-0.092-0.599-0.508-1.105-1.061-1.474
		c-0.552-0.324-1.245-0.554-2.029-0.554h-8.803c-1.705,0-3.086,1.061-3.086,2.397v21.753c0,1.291,1.381,2.397,3.086,2.397h5.764
		v-2.167c0-0.875,0.461-1.659,1.197-2.212c0.785-0.599,1.797-0.921,2.95-0.921h43.229c1.108,0,2.165,0.322,2.905,0.921
		c0.737,0.553,1.197,1.337,1.197,2.212v2.167h5.761c1.705,0,3.134-1.106,3.134-2.397V46.061c0-1.337-1.429-2.397-3.134-2.397h-8.803
		c-0.784,0-1.474,0.23-2.026,0.554c-0.556,0.368-0.969,0.875-1.061,1.474l-0.14,0.692H68.552z"/>
	<path fill="#656565" d="M31.452,24.997h23.226c0.231,0,0.416,0.092,0.556,0.184l12.626,9.633c0.14,0.092,0.185,0.23,0.185,0.415
		v10.324c0,0.324-0.321,0.6-0.737,0.6H31.452c-0.416,0-0.785-0.276-0.785-0.6V25.597C30.667,25.275,31.036,24.997,31.452,24.997z
		 M54.356,26.196H32.232v18.758h34.29v-9.495L54.356,26.196z"/>
	<path fill="#656565" d="M67.307,35.783H54.678c-0.413,0-0.781-0.23-0.781-0.554v-9.632c0-0.322,0.368-0.6,0.781-0.6
		c0.231,0,0.416,0.092,0.556,0.184l12.582,9.633c0.32,0.23,0.32,0.599,0,0.831C67.675,35.737,67.491,35.783,67.307,35.783z
		 M55.462,34.63h9.955l-9.955-7.604V34.63z"/>
	<ellipse fill="#656565" cx="78.876" cy="50.162" rx="2.35" ry="1.797"/>
	<path fill="#656565" d="M78.876,48.088c0.736,0,1.429,0.23,1.889,0.599c0.509,0.368,0.785,0.876,0.785,1.475
		c0,0.552-0.276,1.061-0.785,1.429c-0.46,0.368-1.152,0.599-1.889,0.599c-0.737,0-1.43-0.23-1.89-0.599
		c-0.509-0.368-0.784-0.876-0.784-1.429c0-0.599,0.275-1.107,0.784-1.475C77.446,48.318,78.139,48.088,78.876,48.088z
		 M80.305,49.055c-0.368-0.276-0.877-0.46-1.429-0.46c-0.553,0-1.062,0.184-1.43,0.46c-0.368,0.278-0.6,0.646-0.6,1.107
		c0,0.414,0.231,0.783,0.6,1.061c0.368,0.276,0.877,0.46,1.43,0.46c0.552,0,1.061-0.184,1.429-0.46c0.368-0.278,0.6-0.646,0.6-1.061
		C80.904,49.702,80.673,49.333,80.305,49.055z"/>
	<ellipse fill="#656565" cx="78.876" cy="55.001" rx="2.35" ry="1.797"/>
	<path fill="#656565" d="M78.876,52.974c0.736,0,1.429,0.23,1.889,0.599c0.509,0.368,0.785,0.875,0.785,1.43
		c0,0.552-0.276,1.059-0.785,1.429c-0.46,0.368-1.152,0.599-1.889,0.599c-0.737,0-1.43-0.23-1.89-0.599
		c-0.509-0.37-0.784-0.877-0.784-1.429c0-0.555,0.275-1.062,0.784-1.43C77.446,53.204,78.139,52.974,78.876,52.974z M80.305,53.895
		c-0.368-0.276-0.877-0.414-1.429-0.414c-0.553,0-1.062,0.138-1.43,0.414s-0.6,0.692-0.6,1.107c0,0.414,0.231,0.828,0.6,1.104
		c0.368,0.278,0.877,0.416,1.43,0.416c0.552,0,1.061-0.138,1.429-0.416c0.368-0.276,0.6-0.69,0.6-1.104
		C80.904,54.587,80.673,54.171,80.305,53.895z"/>
</g>
</svg>
