<?xml version="1.0" encoding="utf-8"?>
<!-- Generator: Adobe Illustrator 16.0.0, SVG Export Plug-In . SVG Version: 6.00 Build 0)  -->
<!DOCTYPE svg PUBLIC "-//W3C//DTD SVG 1.1//EN" "http://www.w3.org/Graphics/SVG/1.1/DTD/svg11.dtd">
<svg version="1.1" id="Layer_1" xmlns="http://www.w3.org/2000/svg" xmlns:xlink="http://www.w3.org/1999/xlink" x="0px" y="0px"
	 width="100px" height="100px" viewBox="0 0 100 100" enable-background="new 0 0 100 100" xml:space="preserve">
<g>
	<path fill="#656565" d="M53.855,16.704c1.658,0,3.056,1.398,3.056,3.055v63.35c0,1.656-1.397,3.003-3.056,3.003L34.396,65.2H16.488
		c-1.139,0-2.018-0.931-2.018-2.069v-23.86c0-1.088,0.879-2.019,2.018-2.019h18.27L53.855,16.704z"/>
	<path fill="#656565" d="M68.245,26.9c1.551,3.572,2.742,7.35,3.569,11.18c0.777,3.83,1.191,7.712,1.191,11.645
		c0,4.14-0.464,8.333-1.345,12.37c-0.931,4.09-2.278,8.075-4.091,11.854c-0.517,1.138-2.688,1.967-3.83,1.189
		c-0.566-0.414-0.877-1.243-0.931-2.122v-0.31c0-0.311,0.054-0.621,0.157-0.933c1.084-3.467,1.915-7.038,2.432-10.765
		c0.567-3.675,0.828-7.453,0.828-11.284c0-3.623-0.261-7.143-0.725-10.609c-0.467-3.52-1.19-6.884-2.175-10.197
		c-0.36-1.241,0.054-2.742,0.881-3.311C65.346,24.83,67.674,25.659,68.245,26.9z"/>
	<path fill="#656565" d="M72.542,14.272c1.084-0.829,3.053-0.207,3.727,0.879c2.999,5.28,5.328,10.87,6.883,16.667
		c1.551,5.848,2.379,11.852,2.379,17.907s-0.828,12.059-2.379,17.856c-1.555,5.797-3.884,11.438-6.883,16.666
		c-0.674,1.138-2.643,1.761-3.727,0.932c-1.038-0.776-1.191-2.329-0.728-3.415c2.125-4.866,3.727-10.042,4.814-15.476
		c1.088-5.383,1.658-10.921,1.658-16.563c0-5.642-0.57-11.231-1.658-16.615c-1.088-5.381-2.689-10.609-4.814-15.423
		C71.351,16.549,71.558,14.996,72.542,14.272z"/>
</g>
</svg>
