<?xml version="1.0" encoding="utf-8"?>
<!-- Generator: Adobe Illustrator 16.0.0, SVG Export Plug-In . SVG Version: 6.00 Build 0)  -->
<!DOCTYPE svg PUBLIC "-//W3C//DTD SVG 1.1//EN" "http://www.w3.org/Graphics/SVG/1.1/DTD/svg11.dtd">
<svg version="1.1" id="Layer_1" xmlns="http://www.w3.org/2000/svg" xmlns:xlink="http://www.w3.org/1999/xlink" x="0px" y="0px"
	 width="100px" height="100px" viewBox="0 0 100 100" enable-background="new 0 0 100 100" xml:space="preserve">
<g>
	<path fill="#656565" d="M49.628,17.363c1.624,0,2.939,1.316,2.939,2.886v60.783c0,1.621-1.315,2.938-2.939,2.938L30.939,63.86
		H13.769c-1.064,0-1.976-0.859-1.976-1.924V38.991c0-1.064,0.911-1.925,1.976-1.925h17.525L49.628,17.363z M86.707,47.196v6.939
		c0,0.404-0.304,0.759-0.708,0.759H60.367c-0.405,0-0.759-0.354-0.759-0.759v-6.939c0-0.405,0.354-0.759,0.759-0.759h25.632
		C86.403,46.437,86.707,46.792,86.707,47.196z"/>
</g>
</svg>
