<?xml version="1.0" encoding="utf-8"?>
<!-- Generator: Adobe Illustrator 16.0.0, SVG Export Plug-In . SVG Version: 6.00 Build 0)  -->
<!DOCTYPE svg PUBLIC "-//W3C//DTD SVG 1.1//EN" "http://www.w3.org/Graphics/SVG/1.1/DTD/svg11.dtd">
<svg version="1.1" id="Layer_1" xmlns="http://www.w3.org/2000/svg" xmlns:xlink="http://www.w3.org/1999/xlink" x="0px" y="0px"
	 width="100px" height="100px" viewBox="0 0 100 100" enable-background="new 0 0 100 100" xml:space="preserve">
<g>
	<path fill="#656565" d="M51.706,16.029c1.65,0,2.996,1.342,2.996,2.944v62c0,1.653-1.346,2.997-2.996,2.997L32.641,63.458H15.124
		c-1.084,0-2.015-0.877-2.015-1.963V38.09c0-1.086,0.931-1.963,2.015-1.963h17.878L51.706,16.029z"/>
	<path fill="#656565" d="M69.529,36.179h7.077c0.467,0,0.776,0.31,0.776,0.723v8.784h8.782c0.413,0,0.727,0.361,0.727,0.774v7.08
		c0,0.412-0.313,0.773-0.727,0.773h-8.782v8.732c0,0.413-0.31,0.774-0.776,0.774h-7.077c-0.413,0-0.723-0.361-0.723-0.774v-8.732
		h-8.782c-0.416,0-0.776-0.361-0.776-0.773v-7.08c0-0.413,0.36-0.774,0.776-0.774h8.782v-8.784
		C68.807,36.488,69.116,36.179,69.529,36.179z"/>
</g>
</svg>
