<?xml version="1.0" encoding="utf-8"?>
<!-- Generator: Adobe Illustrator 16.0.0, SVG Export Plug-In . SVG Version: 6.00 Build 0)  -->
<!DOCTYPE svg PUBLIC "-//W3C//DTD SVG 1.1//EN" "http://www.w3.org/Graphics/SVG/1.1/DTD/svg11.dtd">
<svg version="1.1" id="Layer_1" xmlns="http://www.w3.org/2000/svg" xmlns:xlink="http://www.w3.org/1999/xlink" x="0px" y="0px"
	 width="100px" height="100px" viewBox="0 0 100 100" enable-background="new 0 0 100 100" xml:space="preserve">
<g>
	<path fill="#656565" d="M23.811,23.81c14.466-14.407,37.873-14.407,52.337,0c14.465,14.464,14.465,37.928,0,52.337
		c-14.464,14.464-37.871,14.464-52.337,0C9.401,61.684,9.401,38.274,23.811,23.81z M62.069,26.958c1.104,0,1.988,0.938,1.988,2.042
		v42.012c0,1.104-0.885,1.987-1.988,1.987L49.152,59.145H37.227c-0.719,0-1.324-0.609-1.324-1.381v-15.79
		c0-0.772,0.605-1.379,1.324-1.379h12.146L62.069,26.958z M28.394,26.02l13.028,13.028h-4.804L26.021,28.449
		c-11.429,12.642-11.042,32.185,1.158,44.33c12.201,12.201,31.745,12.587,44.386,1.215l-5.134-5.19v-4.802l7.509,7.563
		c11.429-12.644,11.041-32.186-1.16-44.387C60.578,14.978,41.091,14.592,28.394,26.02z"/>
</g>
</svg>
