<?xml version="1.0" encoding="utf-8"?>
<!-- Generator: Adobe Illustrator 16.0.0, SVG Export Plug-In . SVG Version: 6.00 Build 0)  -->
<!DOCTYPE svg PUBLIC "-//W3C//DTD SVG 1.1//EN" "http://www.w3.org/Graphics/SVG/1.1/DTD/svg11.dtd">
<svg version="1.1" id="Layer_1" xmlns="http://www.w3.org/2000/svg" xmlns:xlink="http://www.w3.org/1999/xlink" x="0px" y="0px"
	 width="20px" height="20px" viewBox="0 0 20 20" enable-background="new 0 0 20 20" xml:space="preserve">
<path fill="#FF0000" d="M19.64,5.898c0,0-0.192-1.415-0.782-2.037c-0.747-0.815-1.586-0.821-1.97-0.869
	c-2.755-0.206-6.883-0.206-6.883-0.206h-0.01c0,0-4.13,0-6.883,0.207C2.728,3.04,1.89,3.046,1.142,3.862
	C0.552,4.484,0.36,5.898,0.36,5.898S0.163,7.558,0.163,9.218v0.201v1.356c0,1.66,0.197,3.319,0.197,3.319s0.192,1.415,0.781,2.036
	c0.749,0.817,1.733,0.791,2.17,0.877C4.886,17.164,10,17.214,10,17.214s4.133-0.007,6.888-0.214c0.384-0.048,1.223-0.052,1.97-0.869
	c0.59-0.622,0.782-2.036,0.782-2.036s0.197-1.659,0.197-3.319v-1.27V9.218C19.837,7.558,19.64,5.898,19.64,5.898 M13.283,9.791
	l-5.314,2.87L7.967,8.242V6.897l2.396,1.305L13.283,9.791z"/>
</svg>
