<svg width="20" height="16" xmlns="http://www.w3.org/2000/svg"><path d="M17.93 4c.026.103.039.27.039.5 0 1.846-.456 3.628-1.367 5.346-.938 1.82-2.253 3.27-3.946 4.346C10.807 15.397 8.685 16 6.29 16 3.997 16 1.901 15.397 0 14.192c.286.026.612.039.977.039A8.213 8.213 0 0 0 6.094 12.5c-.912 0-1.712-.263-2.403-.788A4.018 4.018 0 0 1 2.266 9.73c.26.025.507.038.742.038.364 0 .729-.038 1.094-.115A4.143 4.143 0 0 1 1.758 8.23C1.133 7.487.82 6.64.82 5.692v-.077a3.906 3.906 0 0 0 1.836.539 4.505 4.505 0 0 1-1.328-1.462A3.833 3.833 0 0 1 .82 2.75c0-.705.196-1.378.586-2.02a11.276 11.276 0 0 0 3.73 3 11.493 11.493 0 0 0 4.708 1.232 5.522 5.522 0 0 1-.078-.924c0-.717.182-1.39.546-2.019A3.983 3.983 0 0 1 11.797.54 4.01 4.01 0 0 1 13.828 0c.599 0 1.152.115 1.66.346.508.23.957.539 1.348.923.937-.18 1.81-.5 2.617-.961-.312.948-.911 1.692-1.797 2.23A8.917 8.917 0 0 0 20 1.885 8.94 8.94 0 0 1 17.93 4z" fill="#38A1F3" fill-rule="evenodd"/></svg>