<svg width="20" height="20" xmlns="http://www.w3.org/2000/svg"><path d="M20 10c0 1.801-.45 3.468-1.35 5A10.105 10.105 0 0 1 15 18.65 9.694 9.694 0 0 1 10 20a9.76 9.76 0 0 1-2.944-.444c.646-1.075 1.049-1.948 1.21-2.62l.645-2.38c.162.323.457.592.887.807.43.215.9.322 1.412.322.967 0 1.848-.275 2.64-.826.794-.551 1.412-1.297 1.856-2.238.443-.94.665-1.97.665-3.085s-.269-2.117-.806-3.004a5.598 5.598 0 0 0-2.218-2.076c-.941-.498-1.99-.746-3.145-.746-1.371 0-2.581.282-3.63.846a5.753 5.753 0 0 0-2.197 2.198 6.004 6.004 0 0 0-.786 3.004c0 .78.195 1.552.584 2.319.39.766.88 1.283 1.472 1.552.188.08.296.04.323-.12l.282-1.13a.28.28 0 0 0-.08-.282c-.216-.269-.39-.612-.525-1.028a4.113 4.113 0 0 1-.201-1.27c0-.753.181-1.459.544-2.118A4.2 4.2 0 0 1 7.54 6.09c.7-.43 1.506-.645 2.42-.645 1.236 0 2.244.383 3.024 1.149.78.766 1.17 1.74 1.17 2.923 0 1.344-.303 2.446-.908 3.307-.605.86-1.35 1.29-2.238 1.29-.51 0-.914-.182-1.21-.544-.295-.363-.39-.787-.282-1.27.054-.296.175-.726.363-1.29.296-.996.444-1.688.444-2.078 0-.39-.108-.712-.323-.967-.215-.256-.524-.383-.927-.383-.511 0-.941.228-1.29.685-.35.457-.525 1.035-.525 1.734 0 .591.094 1.089.282 1.492l-1.129 4.96c-.161.672-.174 1.626-.04 2.863-1.909-.726-3.448-1.936-4.617-3.63C.584 13.992 0 12.097 0 10c0-1.801.45-3.468 1.35-5A10.105 10.105 0 0 1 5 1.35 9.694 9.694 0 0 1 10 0c1.801 0 3.468.45 5 1.35 1.532.901 2.749 2.118 3.65 3.65A9.694 9.694 0 0 1 20 10z" fill="#E60023" fill-rule="evenodd"/></svg>