<?xml version="1.0" encoding="utf-8"?>
<!-- Generator: Adobe Illustrator 16.0.0, SVG Export Plug-In . SVG Version: 6.00 Build 0)  -->
<!DOCTYPE svg PUBLIC "-//W3C//DTD SVG 1.0//EN" "http://www.w3.org/TR/2001/REC-SVG-20010904/DTD/svg10.dtd">
<svg version="1.0" id="Layer_1" xmlns="http://www.w3.org/2000/svg" xmlns:xlink="http://www.w3.org/1999/xlink" x="0px" y="0px"
	 width="20px" height="20px" viewBox="0 0 20 20" enable-background="new 0 0 20 20" xml:space="preserve">
<g>
	<path d="M19.756,9.617C19.75,9.6,19.74,9.584,19.729,9.569c-0.013-0.015-0.026-0.029-0.042-0.04
		c-0.016-0.012-0.033-0.021-0.051-0.028l-8.139-2.874c-0.012-0.004-0.023-0.01-0.036-0.017s-0.025-0.015-0.038-0.025
		s-0.025-0.021-0.039-0.033c-0.015-0.013-0.028-0.028-0.043-0.044c-0.021-0.024-0.042-0.053-0.064-0.084
		c-0.021-0.032-0.044-0.067-0.066-0.105c-0.021-0.039-0.042-0.08-0.063-0.124c-0.02-0.044-0.039-0.091-0.059-0.14
		c-0.019-0.048-0.036-0.1-0.053-0.152c-0.017-0.053-0.032-0.107-0.046-0.163c-0.013-0.056-0.025-0.113-0.036-0.171
		c-0.01-0.058-0.019-0.117-0.025-0.176c-0.009-0.08-0.014-0.156-0.015-0.228c-0.002-0.073,0-0.142,0.006-0.206
		s0.015-0.124,0.026-0.178s0.026-0.103,0.044-0.145c0.008-0.021,0.018-0.041,0.027-0.059c0.011-0.019,0.021-0.035,0.031-0.049
		c0.011-0.015,0.021-0.028,0.034-0.04c0.01-0.011,0.022-0.021,0.034-0.029c0.002-0.001,0.005-0.003,0.006-0.004
		c0.002-0.001,0.005-0.003,0.007-0.004c0.002-0.001,0.004-0.002,0.007-0.003c0.002-0.001,0.004-0.002,0.006-0.003
		c-3.52,1.629-7.041,3.26-10.563,4.889C0.577,9.334,0.575,9.335,0.573,9.336C0.572,9.337,0.57,9.338,0.568,9.339
		S0.564,9.341,0.563,9.342C0.561,9.343,0.559,9.345,0.557,9.346c-0.01,0.007-0.019,0.016-0.028,0.027
		C0.521,9.384,0.512,9.397,0.503,9.412C0.496,9.427,0.489,9.443,0.482,9.461C0.476,9.479,0.47,9.499,0.465,9.521
		C0.455,9.564,0.448,9.615,0.444,9.67c-0.003,0.057-0.003,0.119,0,0.186s0.012,0.139,0.022,0.216
		c0.011,0.077,0.026,0.157,0.045,0.242c0.015,0.063,0.031,0.125,0.048,0.188c0.018,0.063,0.037,0.124,0.057,0.185
		c0.02,0.06,0.042,0.118,0.064,0.175c0.022,0.058,0.046,0.113,0.07,0.166c0.024,0.055,0.048,0.105,0.073,0.153
		c0.025,0.049,0.05,0.095,0.075,0.137C0.925,11.36,0.95,11.4,0.975,11.437c0.024,0.035,0.048,0.066,0.071,0.095
		c0.016,0.019,0.031,0.035,0.045,0.051c0.014,0.015,0.028,0.027,0.041,0.039s0.025,0.021,0.038,0.028
		c0.012,0.01,0.024,0.017,0.036,0.022l7.979,3.873c0.018,0.009,0.034,0.021,0.051,0.033c0.016,0.015,0.031,0.031,0.044,0.049
		c0.013,0.016,0.024,0.034,0.033,0.053c0.008,0.019,0.014,0.037,0.017,0.055c0.002,0.009,0.002,0.017,0,0.025
		c0,0.007-0.001,0.014-0.003,0.02s-0.005,0.011-0.009,0.016C9.314,15.8,9.31,15.802,9.305,15.807
		c3.476-2.022,6.952-4.046,10.427-6.068c0.006-0.003,0.012-0.008,0.017-0.012c0.003-0.005,0.008-0.01,0.012-0.016
		c0.002-0.006,0.004-0.013,0.006-0.021c0.002-0.007,0.003-0.015,0.002-0.023C19.768,9.65,19.764,9.634,19.756,9.617L19.756,9.617z"
		/>
	<path fill="#3F973E" d="M8.68,13.919c0.015,0.101,0.034,0.201,0.058,0.3c0.023,0.099,0.05,0.196,0.081,0.292
		c0.031,0.095,0.065,0.188,0.103,0.278c0.037,0.091,0.078,0.178,0.121,0.261c0.013,0.024,0.025,0.05,0.039,0.072
		c0.013,0.024,0.026,0.047,0.04,0.069c0.013,0.024,0.027,0.047,0.042,0.069c0.014,0.022,0.028,0.044,0.043,0.066l-7.801-3.758
		c-0.011-0.006-0.023-0.015-0.036-0.022c-0.012-0.009-0.025-0.018-0.038-0.03c-0.013-0.011-0.027-0.023-0.042-0.039
		c-0.014-0.015-0.029-0.031-0.044-0.051c-0.023-0.027-0.047-0.06-0.072-0.096c-0.024-0.034-0.049-0.075-0.075-0.117
		c-0.025-0.043-0.051-0.089-0.076-0.138s-0.049-0.101-0.073-0.153c-0.024-0.054-0.047-0.108-0.07-0.168
		c-0.022-0.056-0.044-0.116-0.064-0.176c-0.02-0.061-0.039-0.122-0.057-0.185c-0.017-0.062-0.033-0.125-0.047-0.188
		c-0.019-0.085-0.033-0.167-0.044-0.243C0.655,9.886,0.647,9.813,0.644,9.746c-0.004-0.067-0.004-0.129,0-0.186
		c0.003-0.056,0.01-0.106,0.021-0.15c0.005-0.022,0.011-0.042,0.018-0.06C0.69,9.331,0.697,9.314,0.705,9.3
		c0.008-0.015,0.017-0.028,0.026-0.039C0.74,9.25,0.75,9.241,0.759,9.233C0.77,9.227,0.78,9.221,0.791,9.216
		c0.01-0.003,0.021-0.005,0.032-0.005c0.01-0.001,0.021,0,0.032,0.002C0.867,9.215,0.878,9.219,0.89,9.225l7.954,3.578
		c-0.019,0.021-0.037,0.041-0.053,0.066c-0.016,0.024-0.03,0.052-0.044,0.082c-0.014,0.029-0.025,0.06-0.036,0.092
		c-0.011,0.034-0.02,0.069-0.028,0.107c-0.011,0.051-0.019,0.106-0.024,0.164c-0.006,0.059-0.009,0.12-0.009,0.186
		c-0.001,0.063,0.001,0.131,0.007,0.201C8.661,13.772,8.668,13.846,8.68,13.919L8.68,13.919z"/>
	<path fill="#FFFFFF" d="M8.68,13.919c0.015,0.101,0.034,0.201,0.058,0.3c0.023,0.099,0.05,0.196,0.081,0.292
		c0.031,0.095,0.065,0.188,0.103,0.278c0.037,0.091,0.078,0.178,0.121,0.261c0.013,0.024,0.025,0.05,0.039,0.072
		c0.013,0.024,0.026,0.047,0.04,0.069c0.013,0.024,0.027,0.047,0.042,0.069c0.014,0.022,0.028,0.044,0.043,0.066l-7.801-3.758
		c-0.011-0.006-0.023-0.015-0.036-0.022c-0.012-0.009-0.025-0.018-0.038-0.03c-0.013-0.011-0.027-0.023-0.042-0.039
		c-0.014-0.015-0.029-0.031-0.044-0.051c-0.023-0.027-0.047-0.06-0.072-0.096c-0.024-0.034-0.049-0.075-0.075-0.117
		c-0.025-0.043-0.051-0.089-0.076-0.138s-0.049-0.101-0.073-0.153c-0.024-0.054-0.047-0.108-0.07-0.168
		c-0.022-0.056-0.044-0.116-0.064-0.176c-0.02-0.061-0.039-0.122-0.057-0.185c-0.017-0.062-0.033-0.125-0.047-0.188
		c-0.019-0.085-0.033-0.167-0.044-0.243C0.655,9.886,0.647,9.813,0.644,9.746c-0.004-0.067-0.004-0.129,0-0.186
		c0.003-0.056,0.01-0.106,0.021-0.15c0.005-0.022,0.011-0.042,0.018-0.06C0.69,9.331,0.697,9.314,0.705,9.3
		c0.008-0.015,0.017-0.028,0.026-0.039C0.74,9.25,0.75,9.241,0.759,9.233C0.77,9.227,0.78,9.221,0.791,9.216
		c0.01-0.003,0.021-0.005,0.032-0.005c0.01-0.001,0.021,0,0.032,0.002C0.867,9.215,0.878,9.219,0.89,9.225l7.954,3.578
		c-0.019,0.021-0.037,0.041-0.053,0.066c-0.016,0.024-0.03,0.052-0.044,0.082c-0.014,0.029-0.025,0.06-0.036,0.092
		c-0.011,0.034-0.02,0.069-0.028,0.107c-0.011,0.051-0.019,0.106-0.024,0.164c-0.006,0.059-0.009,0.12-0.009,0.186
		c-0.001,0.063,0.001,0.131,0.007,0.201C8.661,13.772,8.668,13.846,8.68,13.919L8.68,13.919z"/>
	<path fill="#3F973E" d="M11.002,4.537c-0.011-0.003-0.021-0.006-0.03-0.008c-0.01-0.001-0.02-0.001-0.029-0.001
		c-0.01,0-0.02,0.001-0.029,0.004c-0.01,0.002-0.02,0.006-0.029,0.011C7.517,6.102,4.149,7.661,0.781,9.221
		C0.79,9.216,0.798,9.214,0.807,9.212C0.816,9.211,0.825,9.209,0.834,9.21c0.009,0.001,0.018,0.002,0.027,0.004
		C0.871,9.217,0.88,9.221,0.89,9.225l7.954,3.578l10.278-5.607L11.002,4.537L11.002,4.537z"/>
	<path fill="#D8D8D8" d="M19.159,9.509c-0.013-0.02-0.023-0.04-0.035-0.061S19.1,9.406,19.089,9.385
		c-0.01-0.021-0.021-0.043-0.032-0.064c-0.035-0.076-0.068-0.155-0.097-0.238C18.931,9,18.907,8.914,18.885,8.827
		c-0.021-0.088-0.038-0.179-0.051-0.271s-0.021-0.186-0.024-0.28c-0.002-0.071-0.002-0.14,0.002-0.206
		c0.002-0.066,0.008-0.13,0.016-0.191c0.01-0.062,0.02-0.121,0.033-0.177c0.013-0.056,0.028-0.109,0.047-0.159
		c0.014-0.036,0.027-0.07,0.042-0.103c0.017-0.034,0.032-0.064,0.05-0.094c0.019-0.029,0.038-0.057,0.058-0.081
		c0.02-0.025,0.042-0.049,0.064-0.069L8.843,12.801c-0.019,0.021-0.037,0.043-0.053,0.068c-0.016,0.024-0.03,0.052-0.044,0.082
		C8.732,12.98,8.721,13.01,8.71,13.043c-0.011,0.034-0.02,0.069-0.027,0.107c-0.011,0.051-0.02,0.106-0.025,0.164
		c-0.006,0.059-0.009,0.12-0.009,0.185c-0.001,0.064,0.001,0.132,0.007,0.202s0.013,0.143,0.024,0.218
		c0.015,0.101,0.034,0.201,0.058,0.3c0.023,0.099,0.05,0.195,0.081,0.292c0.031,0.095,0.065,0.188,0.103,0.278
		s0.078,0.178,0.121,0.261c0.013,0.024,0.025,0.049,0.039,0.072c0.013,0.023,0.026,0.047,0.04,0.069
		c0.013,0.024,0.027,0.047,0.042,0.069c0.014,0.022,0.028,0.044,0.043,0.066l9.992-5.759C19.184,9.548,19.171,9.529,19.159,9.509
		L19.159,9.509z"/>
	<path d="M19.686,7.006c-0.007-0.017-0.018-0.034-0.028-0.049c-0.013-0.016-0.028-0.029-0.043-0.041
		c-0.017-0.011-0.035-0.021-0.052-0.026l-8.33-2.686c-0.021-0.007-0.042-0.012-0.063-0.015c-0.021-0.003-0.04-0.003-0.06-0.003
		c-0.02,0.001-0.038,0.003-0.056,0.008c-0.019,0.004-0.035,0.01-0.052,0.018C7.475,5.833,3.946,7.454,0.419,9.075
		c0.014-0.007,0.029-0.012,0.044-0.015c0.016-0.002,0.032-0.004,0.05-0.002c0.018,0,0.037,0.003,0.056,0.008
		c0.02,0.005,0.04,0.012,0.061,0.021l8.15,3.667c0.018,0.01,0.036,0.021,0.053,0.035c0.017,0.014,0.032,0.029,0.046,0.047
		c0.013,0.018,0.025,0.037,0.034,0.057c0.009,0.019,0.015,0.038,0.018,0.058c0.001,0.009,0.001,0.019,0.001,0.027
		c0,0.009-0.003,0.017-0.005,0.022c-0.002,0.007-0.005,0.013-0.01,0.019c-0.004,0.004-0.009,0.009-0.015,0.012
		c3.584-1.965,7.169-3.928,10.755-5.893c0.005-0.003,0.011-0.008,0.017-0.013c0.005-0.005,0.01-0.012,0.013-0.018
		c0.004-0.007,0.007-0.014,0.009-0.022c0.002-0.008,0.003-0.017,0.002-0.026C19.697,7.041,19.692,7.023,19.686,7.006L19.686,7.006z"
		/>
	<path fill="#3F3F3F" d="M0.63,9.088l8.15,3.668c0.018,0.009,0.036,0.02,0.052,0.034c0.017,0.014,0.033,0.029,0.046,0.047
		c0.013,0.018,0.025,0.037,0.034,0.057c0.009,0.02,0.015,0.038,0.018,0.058c0.002,0.018,0.001,0.034-0.003,0.047
		c-0.004,0.015-0.012,0.024-0.022,0.03c-0.01,0.007-0.022,0.011-0.037,0.01c-0.014,0-0.031-0.004-0.049-0.012L0.687,9.338
		C0.674,9.333,0.663,9.329,0.652,9.326C0.641,9.324,0.63,9.323,0.619,9.323c-0.011,0-0.021,0.003-0.031,0.006
		C0.577,9.333,0.567,9.339,0.557,9.346c-0.01,0.008-0.02,0.016-0.028,0.027C0.52,9.384,0.512,9.397,0.503,9.412
		C0.496,9.427,0.489,9.443,0.482,9.461C0.476,9.479,0.47,9.5,0.465,9.521C0.455,9.564,0.448,9.615,0.444,9.67
		c-0.003,0.057-0.003,0.119,0,0.186c0.003,0.067,0.011,0.139,0.022,0.216c0.011,0.077,0.026,0.157,0.045,0.242
		c0.014,0.063,0.03,0.125,0.048,0.188c0.017,0.063,0.037,0.124,0.057,0.185c0.02,0.06,0.042,0.118,0.064,0.175
		c0.022,0.058,0.046,0.114,0.069,0.166c0.024,0.055,0.048,0.105,0.074,0.153c0.025,0.049,0.05,0.095,0.075,0.137
		c0.025,0.044,0.051,0.083,0.075,0.119c0.025,0.035,0.049,0.066,0.072,0.095c0.016,0.019,0.031,0.035,0.044,0.051
		c0.014,0.015,0.028,0.027,0.042,0.039c0.013,0.012,0.025,0.021,0.038,0.03c0.013,0.008,0.025,0.015,0.036,0.021l7.978,3.873
		c0.019,0.009,0.035,0.021,0.052,0.034c0.016,0.014,0.031,0.03,0.044,0.048c0.014,0.016,0.025,0.034,0.034,0.053
		c0.008,0.019,0.014,0.037,0.017,0.055c0.002,0.017,0,0.033-0.003,0.045C9.323,15.79,9.315,15.8,9.305,15.806
		c-0.009,0.006-0.022,0.009-0.036,0.007c-0.015,0-0.031-0.005-0.048-0.013l-7.962-3.892c-0.026-0.013-0.051-0.027-0.078-0.045
		c-0.025-0.019-0.051-0.038-0.077-0.062c-0.025-0.021-0.051-0.046-0.075-0.071c-0.025-0.026-0.049-0.053-0.072-0.082
		c-0.023-0.028-0.047-0.058-0.07-0.09c-0.023-0.031-0.045-0.063-0.067-0.097s-0.043-0.068-0.064-0.104
		c-0.021-0.035-0.042-0.071-0.062-0.108c-0.04-0.076-0.079-0.154-0.115-0.235c-0.038-0.082-0.072-0.166-0.104-0.254
		c-0.032-0.086-0.062-0.175-0.089-0.266c-0.027-0.091-0.052-0.182-0.073-0.274c-0.016-0.069-0.029-0.137-0.041-0.201
		C0.261,9.953,0.252,9.891,0.246,9.83c-0.007-0.06-0.01-0.117-0.013-0.171C0.231,9.604,0.232,9.552,0.235,9.504
		C0.238,9.456,0.243,9.41,0.25,9.368c0.008-0.042,0.017-0.08,0.03-0.115c0.012-0.034,0.026-0.065,0.043-0.091
		S0.36,9.114,0.382,9.097c0.015-0.012,0.032-0.021,0.05-0.027C0.449,9.063,0.469,9.059,0.49,9.057c0.021,0,0.042,0.001,0.066,0.006
		C0.579,9.068,0.604,9.076,0.63,9.088L0.63,9.088z"/>
</g>
</svg>
